<svg id="Layer_1" data-name="Layer 1" xmlns="http://www.w3.org/2000/svg" viewBox="0 0 300 248.98"><defs><style>.cls-1,.cls-12,.cls-5,.cls-7{fill:#fff;}.cls-1{stroke:#adcde0;}.cls-1,.cls-2,.cls-3,.cls-6{stroke-miterlimit:10;}.cls-1,.cls-2,.cls-3{stroke-width:4px;}.cls-2,.cls-3{fill:none;}.cls-2{stroke:#c5dfcc;}.cls-3{stroke:#73abcb;}.cls-4,.cls-6{fill:#1f295c;}.cls-5{font-size:11px;}.cls-12,.cls-5,.cls-7{font-family:GillSansMT, Gill Sans MT;}.cls-6{stroke:#fff;}.cls-7{font-size:10px;}.cls-8{letter-spacing:-0.1em;}.cls-9{letter-spacing:-0.1em;}.cls-10{letter-spacing:-0.06em;}.cls-11{letter-spacing:0em;}.cls-12{font-size:9px;}.cls-13{letter-spacing:-0.02em;}.cls-14{letter-spacing:-0.1em;}.cls-15{letter-spacing:-0.01em;}.cls-16{letter-spacing:0em;}.cls-17{letter-spacing:-0.02em;}.cls-18{letter-spacing:-0.02em;}.cls-19{letter-spacing:0em;}.cls-20{letter-spacing:-0.01em;}.cls-21{letter-spacing:-0.02em;}.cls-22{letter-spacing:-0.12em;}</style></defs><title>Artboard 1</title><path class="cls-1" d="M177.81,3.28a119,119,0,0,0-67,20.51H10.65a7,7,0,0,0-7,7v53a7,7,0,0,0,7,7H62.59A119.56,119.56,0,1,0,177.81,3.28Z"/><path class="cls-2" d="M81.1,77.3c0,3.49-2.43,6.32-5.44,6.32H18.72c-3,0-5.44-2.83-5.44-6.32V38.38c0-3.49,2.43-6.32,5.44-6.32H75.66c3,0,5.44,2.83,5.44,6.32Z"/><circle class="cls-3" cx="238.17" cy="61.66" r="30.25" transform="translate(90.75 258.62) rotate(-67.7)"/><circle class="cls-4" cx="177.72" cy="122.5" r="40.53" transform="translate(-10.05 228.97) rotate(-64.13)"/><text class="cls-5" transform="matrix(0.83, -0.56, 0.56, 0.83, 157.2, 100.57)">L</text><text class="cls-5" transform="translate(161.37 97.76) rotate(-25.63)">e</text><text class="cls-5" transform="translate(165.81 95.63) rotate(-18.1)">a</text><text class="cls-5" transform="translate(169.93 94.23) rotate(-10.44)">d</text><text class="cls-5" transform="translate(175.09 93.26) rotate(-2.23)">e</text><text class="cls-5" transform="translate(180.02 93.08) rotate(5.08)">r</text><text class="cls-5" transform="translate(184.06 93.42) rotate(11.59)">s</text><text class="cls-5" transform="translate(187.9 94.15) rotate(18.97)">h</text><text class="cls-5" transform="translate(192.81 95.9) rotate(24.89)">i</text><text class="cls-5" transform="translate(194.77 96.71) rotate(30.79)">p</text><circle class="cls-3" cx="263.82" cy="122.32" r="30.25" transform="translate(50.55 320) rotate(-67.7)"/><circle class="cls-3" cx="238.95" cy="182.97" r="30.25" transform="translate(-21.01 334.63) rotate(-67.7)"/><circle class="cls-4" cx="178.11" cy="208.11" r="30.25" transform="translate(-82.02 293.94) rotate(-67.7)"/><circle class="cls-3" cx="117.49" cy="183.26" r="30.25" transform="translate(-96.64 222.43) rotate(-67.7)"/><circle class="cls-3" cx="93.14" cy="123.18" r="30.25" transform="translate(-56.17 162.61) rotate(-67.7)"/><circle class="cls-3" cx="118.01" cy="62.52" r="30.25" transform="translate(15.39 147.99) rotate(-67.7)"/><path class="cls-4" d="M205.54,48.28A30.25,30.25,0,1,1,186,7.74,30.58,30.58,0,0,1,189,8.82,30.25,30.25,0,0,1,205.54,48.28Z"/><polygon class="cls-4" points="172.99 82.65 172.99 78.09 169.53 78.09 177.68 72.02 185.58 78.18 182.16 78.19 182.16 82.65 172.99 82.65"/><polygon class="cls-4" points="173.55 163.21 173.55 167.77 170.08 167.77 178.23 173.84 186.14 167.68 182.72 167.67 182.72 163.21 173.55 163.21"/><polygon class="cls-4" points="217.94 126.88 222.51 126.88 222.51 130.34 228.57 122.19 222.41 114.29 222.41 117.71 217.94 117.71 217.94 126.88"/><polygon class="cls-4" points="138.07 126.88 133.5 126.88 133.5 130.34 127.44 122.19 133.6 114.29 133.6 117.71 138.07 117.71 138.07 126.88"/><polygon class="cls-4" points="145.87 97.45 142.65 94.22 140.2 96.67 141.67 86.62 151.62 85.39 149.2 87.81 152.35 90.97 145.87 97.45"/><polygon class="cls-4" points="209.09 97.45 212.32 94.22 214.77 96.67 213.29 86.62 203.35 85.39 205.77 87.81 202.61 90.97 209.09 97.45"/><polygon class="cls-4" points="209.09 147.41 212.32 150.63 214.77 148.18 213.29 158.23 203.35 159.47 205.77 157.04 202.61 153.89 209.09 147.41"/><polygon class="cls-4" points="145.87 147.41 142.65 150.63 140.2 148.18 141.67 158.23 151.62 159.47 149.2 157.04 152.35 153.89 145.87 147.41"/><circle class="cls-6" cx="178.31" cy="123.82" r="26.18" transform="translate(-10.89 230.24) rotate(-64.13)"/><text class="cls-7" transform="translate(164.51 112.7) scale(1.06 1)">Vision<tspan class="cls-8" x="24.79" y="0">,</tspan><tspan x="-2.81" y="12.54">Mission</tspan><tspan class="cls-9" x="27.6" y="12.54">,</tspan><tspan class="cls-10"><tspan x="0.22" y="25.09">V</tspan><tspan class="cls-11" x="5.66" y="25.09">alues</tspan></tspan></text><text class="cls-12" transform="translate(155.95 27.27) scale(1.05 1)"><tspan class="cls-13">J</tspan><tspan x="2.07" y="0">ob</tspan><tspan class="cls-14" x="11.54" y="0"> </tspan><tspan x="13.14" y="0">Ana</tspan><tspan class="cls-15" x="27.48" y="0">l</tspan><tspan class="cls-16" x="29.36" y="0">ysis</tspan><tspan x="2.44" y="10.71">&amp; </tspan><tspan class="cls-17" x="10.56" y="10.71">P</tspan><tspan x="14.93" y="10.71">osition</tspan><tspan x="-4.21" y="21.42">Requi</tspan><tspan class="cls-18" x="16.51" y="21.42">r</tspan><tspan class="cls-19" x="19.89" y="21.42">ements</tspan></text><text class="cls-12" transform="translate(155.17 200.29) scale(1.05 1)">P<tspan class="cls-17" x="4.59" y="0">r</tspan><tspan x="7.93" y="0">o</tspan><tspan class="cls-20" x="12.89" y="0">f</tspan><tspan x="15.06" y="0">essional</tspan><tspan x="-2.82" y="10.71">D</tspan><tspan class="cls-21" x="3.93" y="10.71">e</tspan><tspan class="cls-18" x="8.11" y="10.71">v</tspan><tspan x="11.87" y="10.71">elopment</tspan><tspan x="4.02" y="21.42">&amp;</tspan><tspan class="cls-22" x="9.65" y="21.42" xml:space="preserve"> T</tspan><tspan x="15.33" y="21.42">raining</tspan></text></svg>