<svg id="Layer_1" data-name="Layer 1" xmlns="http://www.w3.org/2000/svg" viewBox="0 0 400 365.78"><defs><style>.cls-1,.cls-2{fill:none;}.cls-1{stroke:#adc4d8;stroke-width:3px;}.cls-1,.cls-2,.cls-4,.cls-5{stroke-miterlimit:10;}.cls-2{stroke:#adc9e5;stroke-width:2px;}.cls-3{font-size:15.24px;}.cls-13,.cls-23,.cls-26,.cls-3,.cls-34,.cls-35,.cls-5,.cls-6{fill:#1f295c;}.cls-10,.cls-26,.cls-3,.cls-34,.cls-37{font-family:GillSansMT, Gill Sans MT;}.cls-21,.cls-37,.cls-4{fill:#fff;}.cls-4{stroke:#9dc4a2;}.cls-5{stroke:#1f295c;}.cls-13,.cls-21,.cls-23,.cls-26,.cls-35,.cls-6{font-size:12.09px;}.cls-13,.cls-21,.cls-23,.cls-35,.cls-6{font-family:GillSansMT-Bold, Gill Sans MT;}.cls-35,.cls-6{letter-spacing:-0.01em;}.cls-13,.cls-21,.cls-23,.cls-35,.cls-7{font-weight:700;}.cls-8{letter-spacing:-0.11em;}.cls-9{letter-spacing:-0.01em;}.cls-11{letter-spacing:-0.02em;}.cls-12{letter-spacing:-0.03em;}.cls-13,.cls-20{letter-spacing:-0.03em;}.cls-14{letter-spacing:-0.04em;}.cls-15{letter-spacing:-0.04em;}.cls-16{letter-spacing:-0.05em;}.cls-17{letter-spacing:-0.16em;}.cls-18{letter-spacing:-0.12em;}.cls-19{letter-spacing:-0.06em;}.cls-21,.cls-23{letter-spacing:-0.02em;}.cls-22{letter-spacing:-0.01em;}.cls-24{letter-spacing:-0.02em;}.cls-25{letter-spacing:-0.12em;}.cls-26{letter-spacing:-0.01em;}.cls-27{letter-spacing:-0.14em;}.cls-28{letter-spacing:-0.1em;}.cls-29{letter-spacing:-0.02em;}.cls-30{letter-spacing:-0.02em;}.cls-31{letter-spacing:-0.04em;}.cls-32{letter-spacing:-0.03em;}.cls-33{letter-spacing:-0.04em;}.cls-34,.cls-37{font-size:13.21px;}.cls-36{letter-spacing:-0.01em;}.cls-38{fill:#78a3d0;}</style></defs><title>Artboard 1</title><circle class="cls-1" cx="197.4" cy="184" r="145.67"/><circle class="cls-2" cx="196.64" cy="180.76" r="64.97"/><text class="cls-3" transform="translate(150.44 196.87) rotate(-102.75) scale(0.96 1)">C</text><text class="cls-3" transform="matrix(-0.04, -0.96, 1, -0.05, 148.32, 187.27)">o</text><text class="cls-3" transform="translate(147.97 179.64) rotate(-84.25) scale(0.96 1)">n</text><text class="cls-3" transform="matrix(0.21, -0.94, 0.98, 0.21, 148.71, 172.73)">t</text><text class="cls-3" transform="matrix(0.28, -0.92, 0.96, 0.29, 149.71, 168.26)">i</text><text class="cls-3" transform="matrix(0.36, -0.89, 0.92, 0.38, 150.43, 165.45)">n</text><text class="cls-3" transform="matrix(0.48, -0.83, 0.86, 0.5, 152.96, 159.19)">u</text><text class="cls-3" transform="matrix(0.6, -0.75, 0.78, 0.62, 156.38, 153.19)">o</text><text class="cls-3" transform="matrix(0.7, -0.66, 0.68, 0.73, 161.11, 147.24)">u</text><text class="cls-3" transform="matrix(0.78, -0.56, 0.59, 0.81, 166.21, 142.52)">s</text><text class="cls-3" transform="matrix(0.83, -0.49, 0.51, 0.86, 170.51, 139.42)"> </text><text class="cls-3" transform="translate(173.49 137.26) rotate(-22.04) scale(0.96 1)">Q</text><text class="cls-3" transform="translate(184.19 133.11) rotate(-11.46) scale(0.96 1)">u</text><text class="cls-3" transform="matrix(0.96, -0.07, 0.07, 1, 190.99, 131.74)">a</text><text class="cls-3" transform="matrix(0.96, 0.02, -0.02, 1, 196.92, 131.38)">l</text><text class="cls-3" transform="translate(199.87 131.43) rotate(4.54) scale(0.96 1)">i</text><text class="cls-3" transform="translate(202.83 131.63) rotate(8.93) scale(0.96 1)">t</text><text class="cls-3" transform="matrix(0.93, 0.25, -0.26, 0.97, 207.3, 132.27)">y</text><text class="cls-3" transform="matrix(0.9, 0.34, -0.35, 0.94, 213.15, 133.88)"> </text><text class="cls-3" transform="matrix(0.87, 0.4, -0.42, 0.91, 216.72, 135.22)">I</text><text class="cls-3" transform="matrix(0.81, 0.52, -0.54, 0.84, 219.81, 136.32)">m</text><text class="cls-3" transform="matrix(0.7, 0.66, -0.68, 0.73, 228.75, 142.26)">p</text><text class="cls-3" transform="matrix(0.61, 0.74, -0.77, 0.64, 233.79, 147)">r</text><text class="cls-3" transform="translate(237.12 150.83) rotate(57.45) scale(0.96 1)">o</text><text class="cls-3" transform="matrix(0.4, 0.87, -0.91, 0.42, 241.15, 157.18)">v</text><text class="cls-3" transform="matrix(0.3, 0.91, -0.95, 0.31, 243.62, 162.35)">e</text><text class="cls-3" transform="matrix(0.13, 0.95, -0.99, 0.14, 245.84, 168.46)">m</text><text class="cls-3" transform="matrix(-0.03, 0.96, -1, -0.04, 247.2, 179.16)">e</text><text class="cls-3" transform="translate(246.99 185.76) rotate(99.87) scale(0.96 1)">n</text><text class="cls-3" transform="matrix(-0.27, 0.92, -0.96, -0.28, 245.76, 192.59)">t</text><text class="cls-3" transform="translate(244.46 196.97) rotate(111.23) scale(0.96 1)"> </text><path class="cls-4" d="M102.26,241c0,9.43-9.57,17.07-21.37,17.07H23.57C11.76,258,2.19,250.39,2.19,241V195c0-9.43,9.57-17.07,21.37-17.07H80.89c11.8,0,21.37,7.64,21.37,17.07Z"/><path class="cls-4" d="M211.26,344.82c0,9.43-9.57,17.07-21.37,17.07H132.57c-11.8,0-21.37-7.64-21.37-17.07v-46c0-9.43,9.57-17.07,21.37-17.07h57.32c11.8,0,21.37,7.64,21.37,17.07Z"/><path class="cls-5" d="M353.61,308.78c0,9.43-9.57,17.07-21.37,17.07H274.92c-11.8,0-21.37-7.64-21.37-17.07v-46c0-9.43,9.57-17.07,21.37-17.07h57.32c11.8,0,21.37,7.64,21.37,17.07Z"/><path class="cls-4" d="M273,60.83c0,8.75-9.57,15.83-21.37,15.83H194.3c-11.8,0-21.37-7.09-21.37-15.83V18.18c0-8.74,9.57-15.83,21.37-15.83h57.32c11.8,0,21.37,7.09,21.37,15.83Z"/><path class="cls-4" d="M136.41,107.29c0,9.52-9.57,17.24-21.37,17.24H57.71c-11.8,0-21.37-7.72-21.37-17.24V60.87c0-9.52,9.57-17.24,21.37-17.24H115c11.8,0,21.37,7.72,21.37,17.24Z"/><path class="cls-4" d="M398.18,173c0,10.55-10.61,19.1-23.7,19.1H310.92c-13.09,0-23.7-8.55-23.7-19.1V121.6c0-10.55,10.61-19.1,23.7-19.1h63.56c13.09,0,23.7,8.55,23.7,19.1Z"/><text class="cls-6" transform="translate(123.77 318.85) scale(0.96 1)"><tspan class="cls-7">Identify Need<tspan class="cls-8" x="75.98" y="0">:</tspan><tspan class="cls-9" x="77.98" y="0"></tspan></tspan><tspan class="cls-10"><tspan x="3.83" y="14.51">Organizational</tspan><tspan x="10.46" y="29.02">Assessment</tspan></tspan></text><text class="cls-6" transform="translate(15.27 214.9) scale(0.96 1)"><tspan class="cls-7">Gather Data<tspan class="cls-8" x="70.44" y="0">:</tspan><tspan x="72.44" y="0"></tspan></tspan><tspan class="cls-10"><tspan x="1.58" y="14.51">E</tspan><tspan class="cls-11" x="7.57" y="14.51">n</tspan><tspan x="13.37" y="14.51">vi</tspan><tspan class="cls-12" x="21.2" y="14.51">r</tspan><tspan x="25.62" y="14.51">onmental</tspan><tspan x="7.69" y="29.02">Assessment</tspan></tspan></text><text class="cls-13" transform="translate(39.96 87.19) scale(0.92 1)">Ana<tspan class="cls-14" x="21.64" y="0">l</tspan><tspan class="cls-15" x="24.38" y="0">y</tspan><tspan class="cls-16" x="30.12" y="0">z</tspan><tspan x="35.75" y="0">e</tspan><tspan class="cls-17" x="42" y="0"> </tspan><tspan class="cls-18" x="43.43" y="0">W</tspan><tspan class="cls-15" x="56.03" y="0">ork</tspan><tspan class="cls-14" x="74.04" y="0">f</tspan><tspan x="77.15" y="0">o</tspan><tspan class="cls-19" x="83.91" y="0">r</tspan><tspan x="88.61" y="0">ce</tspan><tspan class="cls-15"><tspan x="2.39" y="14.51">Supp</tspan><tspan class="cls-14" x="29.16" y="14.51">l</tspan><tspan class="cls-20" x="31.89" y="14.51">y &amp; Demand</tspan></tspan></text><text class="cls-21" transform="translate(280.63 288.56) scale(0.96 1)">Monitor <tspan class="cls-22"><tspan x="-5.78" y="14.51">&amp; Evaluate</tspan></tspan></text><text class="cls-23" transform="translate(301.97 139.78) scale(0.96 1)">Close the G<tspan class="cls-24" x="64.81" y="0">a</tspan><tspan x="70.93" y="0">ps</tspan><tspan class="cls-25" x="82.77" y="0">:</tspan><tspan x="84.66" y="0"></tspan></text><text class="cls-26" transform="translate(293.57 154) scale(0.94 1)">Implement<tspan class="cls-27" x="50.4" y="0"> </tspan><tspan class="cls-28" x="52.06" y="0">W</tspan><tspan class="cls-29" x="63.4" y="0">ork</tspan><tspan class="cls-30" x="80.11" y="0">f</tspan><tspan x="82.83" y="0">o</tspan><tspan class="cls-31" x="89.32" y="0">r</tspan><tspan class="cls-29" x="93.63" y="0">ce</tspan><tspan x="20.13" y="14.23">D</tspan><tspan class="cls-32" x="29.02" y="14.23">e</tspan><tspan class="cls-33" x="34.45" y="14.23">v</tspan><tspan x="39.32" y="14.23">elopment</tspan><tspan x="21.16" y="28.45">Components</tspan></text><text class="cls-34" transform="translate(144.52 296.74)">Step 1</text><text class="cls-34" transform="translate(32.86 192.14)">Step 2</text><text class="cls-34" transform="translate(70.21 65.11)">Step 3</text><text class="cls-34" transform="translate(203.15 21.35)">Step 4</text><text class="cls-35" transform="translate(190.03 47.35) scale(0.96 1)">Identify G<tspan class="cls-36" x="55.39" y="0">a</tspan><tspan x="61.63" y="0">ps</tspan></text><text class="cls-34" transform="translate(328.21 120.74)">Step 5</text><text class="cls-37" transform="translate(286.1 268.22)">Step 6</text><polygon class="cls-38" points="306.23 87.75 280.4 84.37 296.25 63.69 306.23 87.75"/><polygon class="cls-38" points="353.86 213.89 335.35 232.23 328.73 207.04 353.86 213.89"/><polygon class="cls-38" points="244.92 335.13 219.76 328.39 238.18 309.97 244.92 335.13"/><polygon class="cls-38" points="85.86 296.9 80.84 271.34 105.49 279.77 85.86 296.9"/><polygon class="cls-38" points="41.53 158.4 58.78 138.88 67.06 163.58 41.53 158.4"/><polygon class="cls-38" points="140.18 36.63 165.71 41.81 148.47 61.33 140.18 36.63"/></svg>