<svg id="Layer_1" data-name="Layer 1" xmlns="http://www.w3.org/2000/svg" viewBox="0 0 325.1 269"><defs><style>.cls-1,.cls-6{fill:#fff;}.cls-1{stroke:#adcde0;}.cls-1,.cls-2,.cls-3,.cls-5{stroke-miterlimit:10;}.cls-1,.cls-2,.cls-3{stroke-width:4px;}.cls-2,.cls-3{fill:none;}.cls-2{stroke:#c5dfcc;}.cls-3{stroke:#73abcb;}.cls-4{fill:#73abcb;}.cls-5{fill:#1f295c;stroke:#fff;}.cls-6{font-size:12px;font-family:GillSansMT, Gill Sans MT;}.cls-7{letter-spacing:-0.1em;}.cls-8{letter-spacing:-0.06em;}</style></defs><title>Artboard 1</title><path class="cls-1" d="M192.37,4.42a129.36,129.36,0,0,0-72.81,22.29H10.64A7.64,7.64,0,0,0,3,34.36V92a7.64,7.64,0,0,0,7.64,7.64H67.11A130,130,0,1,0,192.37,4.42Z"/><path class="cls-2" d="M87.23,84.89c0,3.79-2.65,6.87-5.91,6.87H19.41c-3.27,0-5.91-3.07-5.91-6.87V42.58c0-3.79,2.65-6.87,5.91-6.87H81.31c3.27,0,5.91,3.07,5.91,6.87Z"/><circle class="cls-3" cx="257.99" cy="67.89" r="32.89" transform="translate(97.28 280.83) rotate(-67.7)"/><circle class="cls-4" cx="192.27" cy="134.04" r="44.06" transform="translate(-12.22 248.56) rotate(-64.13)"/><circle class="cls-3" cx="285.88" cy="133.83" r="32.89" transform="translate(53.58 347.56) rotate(-67.7)"/><circle class="cls-3" cx="258.84" cy="199.78" r="32.89" transform="translate(-24.21 363.46) rotate(-67.7)"/><circle class="cls-3" cx="192.65" cy="227.59" r="32.89" transform="translate(-91.02 319.48) rotate(-67.7)"/><circle class="cls-3" cx="126.79" cy="200.08" r="32.89" transform="translate(-106.44 241.48) rotate(-67.7)"/><circle class="cls-3" cx="100.32" cy="134.77" r="32.89" transform="translate(-62.44 176.45) rotate(-67.7)"/><circle class="cls-3" cx="127.36" cy="68.82" r="32.89" transform="translate(15.36 160.55) rotate(-67.7)"/><path class="cls-3" d="M222.52,53.35A32.89,32.89,0,1,1,201.23,9.27a33.24,33.24,0,0,1,3.34,1.17A32.89,32.89,0,0,1,222.52,53.35Z"/><polygon class="cls-4" points="187.13 90.71 187.13 85.75 183.36 85.75 192.23 79.15 200.82 85.85 197.1 85.86 197.1 90.71 187.13 90.71"/><polygon class="cls-4" points="187.74 178.29 187.74 183.25 183.97 183.25 192.83 189.85 201.42 183.15 197.7 183.14 197.7 178.29 187.74 178.29"/><polygon class="cls-4" points="236 138.79 240.96 138.79 240.96 142.56 247.56 133.7 240.86 125.11 240.86 128.83 236 128.83 236 138.79"/><polygon class="cls-4" points="149.16 138.79 144.2 138.79 144.2 142.56 137.6 133.7 144.31 125.11 144.31 128.83 149.16 128.83 149.16 138.79"/><polygon class="cls-4" points="157.65 106.8 154.14 103.29 151.48 105.96 153.08 95.02 163.89 93.69 161.26 96.32 164.7 99.75 157.65 106.8"/><polygon class="cls-4" points="226.38 106.8 229.88 103.29 232.55 105.96 230.95 95.02 220.14 93.69 222.76 96.32 219.33 99.75 226.38 106.8"/><polygon class="cls-4" points="226.38 161.11 229.88 164.62 232.55 161.95 230.95 172.88 220.14 174.22 222.76 171.59 219.33 168.16 226.38 161.11"/><polygon class="cls-4" points="157.65 161.11 154.14 164.62 151.48 161.95 153.08 172.88 163.89 174.22 161.26 171.59 164.7 168.16 157.65 161.11"/><circle class="cls-5" cx="192.07" cy="134.63" r="30.28" transform="translate(-12.86 248.72) rotate(-64.13)"/><text class="cls-6" transform="translate(175.18 124.38) scale(1.06 1)">Vision<tspan class="cls-7" x="29.75" y="0">,</tspan><tspan x="-3.37" y="13.64">Mission</tspan><tspan class="cls-7" x="33.12" y="13.64">,</tspan><tspan class="cls-8" x="0.27" y="27.27">V</tspan><tspan x="6.79" y="27.27">alues</tspan></text></svg>