<svg id="Layer_1" data-name="Layer 1" xmlns="http://www.w3.org/2000/svg" viewBox="0 0 300 248.98"><defs><style>.cls-1,.cls-11,.cls-3,.cls-7,.cls-8{fill:#fff;}.cls-1{stroke:#adcde0;}.cls-1,.cls-2,.cls-3,.cls-5,.cls-6,.cls-7{stroke-miterlimit:10;}.cls-1,.cls-2,.cls-3,.cls-5,.cls-6{stroke-width:4px;}.cls-2,.cls-6{fill:none;}.cls-2{stroke:#c5dfcc;}.cls-3,.cls-6,.cls-7{stroke:#73abcb;}.cls-4{fill:#73abcb;}.cls-5{fill:#1f295c;stroke:#1f295c;}.cls-8{font-size:10px;}.cls-11,.cls-8{font-family:GillSansMT, Gill Sans MT;}.cls-9{letter-spacing:-0.1em;}.cls-10{letter-spacing:-0.02em;}.cls-11{font-size:7.54px;}.cls-12{letter-spacing:-0.02em;}.cls-13{letter-spacing:-0.02em;}</style></defs><title>Artboard 1</title><path class="cls-1" d="M177.81,3.28a119,119,0,0,0-67,20.51H10.65a7,7,0,0,0-7,7v53a7,7,0,0,0,7,7H62.59A119.56,119.56,0,1,0,177.81,3.28Z"/><path class="cls-2" d="M81.1,77.3c0,3.49-2.43,6.32-5.44,6.32H18.72c-3,0-5.44-2.83-5.44-6.32V38.38c0-3.49,2.43-6.32,5.44-6.32H75.66c3,0,5.44,2.83,5.44,6.32Z"/><circle class="cls-3" cx="238.17" cy="61.66" r="30.25" transform="translate(90.75 258.62) rotate(-67.7)"/><circle class="cls-4" cx="177.72" cy="122.5" r="40.53" transform="translate(-10.05 228.97) rotate(-64.13)"/><circle class="cls-5" cx="263.82" cy="122.32" r="30.25" transform="translate(50.55 320) rotate(-67.7)"/><circle class="cls-3" cx="238.95" cy="182.97" r="30.25" transform="translate(-21.01 334.63) rotate(-67.7)"/><circle class="cls-6" cx="178.11" cy="208.11" r="30.25" transform="translate(-82.02 293.94) rotate(-67.7)"/><circle class="cls-3" cx="117.49" cy="183.26" r="30.25" transform="translate(-96.64 222.43) rotate(-67.7)"/><circle class="cls-3" cx="93.14" cy="123.18" r="30.25" transform="translate(-56.17 162.61) rotate(-67.7)"/><circle class="cls-3" cx="118.01" cy="62.52" r="30.25" transform="translate(15.39 147.99) rotate(-67.7)"/><path class="cls-3" d="M205.54,48.28A30.25,30.25,0,1,1,186,7.74,30.58,30.58,0,0,1,189,8.82,30.25,30.25,0,0,1,205.54,48.28Z"/><polygon class="cls-4" points="172.99 82.65 172.99 78.09 169.53 78.09 177.68 72.02 185.58 78.18 182.16 78.19 182.16 82.65 172.99 82.65"/><polygon class="cls-4" points="173.55 163.21 173.55 167.77 170.08 167.77 178.23 173.84 186.14 167.68 182.72 167.67 182.72 163.21 173.55 163.21"/><polygon class="cls-4" points="217.94 126.88 222.51 126.88 222.51 130.34 228.57 122.19 222.41 114.29 222.41 117.71 217.94 117.71 217.94 126.88"/><polygon class="cls-4" points="138.07 126.88 133.5 126.88 133.5 130.34 127.44 122.19 133.6 114.29 133.6 117.71 138.07 117.71 138.07 126.88"/><polygon class="cls-4" points="145.87 97.45 142.65 94.22 140.2 96.67 141.67 86.62 151.62 85.39 149.2 87.81 152.35 90.97 145.87 97.45"/><polygon class="cls-4" points="209.09 97.45 212.32 94.22 214.77 96.67 213.29 86.62 203.35 85.39 205.77 87.81 202.61 90.97 209.09 97.45"/><polygon class="cls-4" points="209.09 147.41 212.32 150.63 214.77 148.18 213.29 158.23 203.35 159.47 205.77 157.04 202.61 153.89 209.09 147.41"/><polygon class="cls-4" points="145.87 147.41 142.65 150.63 140.2 148.18 141.67 158.23 151.62 159.47 149.2 157.04 152.35 153.89 145.87 147.41"/><circle class="cls-7" cx="177.54" cy="123.05" r="27.85" transform="translate(-10.64 229.11) rotate(-64.13)"/><text class="cls-8" transform="translate(238.97 116)">Recruitment<tspan class="cls-9" x="50.52" y="0">,</tspan><tspan x="1.96" y="10.71">Sc</tspan><tspan class="cls-10" x="10.92" y="10.71">r</tspan><tspan x="14.68" y="10.71">eening &amp;</tspan><tspan x="7.47" y="21.42">Selection</tspan></text><text class="cls-11" transform="translate(94.18 181) scale(1.05 1)">Organizational<tspan x="2.78" y="7.71">E</tspan><tspan class="cls-12" x="6.55" y="7.71">n</tspan><tspan x="10.21" y="7.71">vi</tspan><tspan class="cls-13" x="15.17" y="7.71">r</tspan><tspan x="17.97" y="7.71">onment</tspan></text></svg>