<svg id="Layer_1" data-name="Layer 1" xmlns="http://www.w3.org/2000/svg" viewBox="0 0 400 365.78"><defs><style>.cls-1,.cls-2{fill:none;}.cls-1{stroke:#adc4d8;stroke-width:3px;}.cls-1,.cls-2,.cls-4,.cls-5{stroke-miterlimit:10;}.cls-2{stroke:#adc9e5;stroke-width:2px;}.cls-3{font-size:15.29px;}.cls-22,.cls-26,.cls-3,.cls-34,.cls-36,.cls-5,.cls-6{fill:#1f295c;}.cls-10,.cls-26,.cls-3,.cls-34,.cls-35,.cls-9{font-family:GillSansMT, Gill Sans MT;}.cls-14,.cls-35,.cls-4{fill:#fff;}.cls-4{stroke:#9dc4a2;}.cls-5{stroke:#1f295c;}.cls-14,.cls-22,.cls-26,.cls-36,.cls-6{font-size:12.13px;}.cls-14,.cls-22,.cls-36,.cls-6{font-family:GillSansMT-Bold, Gill Sans MT;}.cls-12,.cls-36,.cls-6{letter-spacing:0em;}.cls-14,.cls-22,.cls-36,.cls-7{font-weight:700;}.cls-8{letter-spacing:-0.11em;}.cls-38,.cls-9{letter-spacing:-0.01em;}.cls-11{letter-spacing:-0.02em;}.cls-13{letter-spacing:-0.03em;}.cls-14{letter-spacing:-0.03em;}.cls-15{letter-spacing:-0.04em;}.cls-16{letter-spacing:-0.06em;}.cls-17{letter-spacing:-0.04em;}.cls-18{letter-spacing:-0.16em;}.cls-19{letter-spacing:-0.12em;}.cls-20{letter-spacing:-0.04em;}.cls-21{letter-spacing:-0.06em;}.cls-22{letter-spacing:-0.01em;}.cls-23{letter-spacing:-0.02em;}.cls-24{letter-spacing:-0.02em;}.cls-25{letter-spacing:-0.12em;}.cls-26{letter-spacing:-0.02em;}.cls-27{letter-spacing:-0.14em;}.cls-28{letter-spacing:-0.1em;}.cls-29{letter-spacing:-0.02em;}.cls-30{letter-spacing:-0.01em;}.cls-31{letter-spacing:-0.04em;}.cls-32{letter-spacing:-0.03em;}.cls-33{letter-spacing:-0.04em;}.cls-34,.cls-35{font-size:13.26px;}.cls-37{letter-spacing:-0.01em;}.cls-39{fill:#78a3d0;}</style></defs><title>Artboard 1</title><circle class="cls-1" cx="197.85" cy="184.07" r="146.16"/><circle class="cls-2" cx="197.09" cy="180.82" r="65.19"/><text class="cls-3" transform="translate(150.75 197.02) rotate(-102.8) scale(0.96 1)">C</text><text class="cls-3" transform="translate(148.62 187.36) rotate(-92.66) scale(0.96 1)">o</text><text class="cls-3" transform="matrix(0.1, -0.96, 0.99, 0.1, 148.26, 179.7)">n</text><text class="cls-3" transform="translate(149 172.78) rotate(-77.67) scale(0.96 1)">t</text><text class="cls-3" transform="translate(150.01 168.28) rotate(-73.34) scale(0.96 1)">i</text><text class="cls-3" transform="matrix(0.36, -0.89, 0.92, 0.38, 150.73, 165.46)">n</text><text class="cls-3" transform="translate(153.27 159.18) rotate(-59.88) scale(0.96 1)">u</text><text class="cls-3" transform="translate(156.67 153.19) rotate(-51.48) scale(0.96 1)">o</text><text class="cls-3" transform="translate(161.44 147.19) rotate(-43.03) scale(0.96 1)">u</text><text class="cls-3" transform="translate(166.56 142.46) rotate(-35.94) scale(0.96 1)">s</text><text class="cls-3" transform="matrix(0.83, -0.49, 0.51, 0.86, 170.88, 139.35)"> </text><text class="cls-3" transform="translate(173.85 137.19) rotate(-22.06) scale(0.96 1)">Q</text><text class="cls-3" transform="translate(184.6 133.02) rotate(-11.46) scale(0.96 1)">u</text><text class="cls-3" transform="translate(191.42 131.64) rotate(-4.01) scale(0.96 1)">a</text><text class="cls-3" transform="matrix(0.96, 0.02, -0.02, 1, 197.37, 131.28)">l</text><text class="cls-3" transform="matrix(0.96, 0.08, -0.08, 1, 200.33, 131.33)">i</text><text class="cls-3" transform="matrix(0.95, 0.15, -0.16, 0.99, 203.3, 131.53)">t</text><text class="cls-3" transform="translate(207.78 132.17) rotate(15) scale(0.96 1)">y</text><text class="cls-3" transform="matrix(0.9, 0.34, -0.35, 0.94, 213.66, 133.79)"> </text><text class="cls-3" transform="matrix(0.87, 0.4, -0.42, 0.91, 217.24, 135.13)">I</text><text class="cls-3" transform="translate(220.34 136.23) rotate(32.93) scale(0.96 1)">m</text><text class="cls-3" transform="translate(229.32 142.2) rotate(43.12) scale(0.96 1)">p</text><text class="cls-3" transform="matrix(0.61, 0.74, -0.77, 0.64, 234.37, 146.97)">r</text><text class="cls-3" transform="matrix(0.52, 0.81, -0.84, 0.54, 237.7, 150.8)">o</text><text class="cls-3" transform="translate(241.74 157.16) rotate(65.06) scale(0.96 1)">v</text><text class="cls-3" transform="translate(244.22 162.35) rotate(72.01) scale(0.96 1)">e</text><text class="cls-3" transform="translate(246.47 168.52) rotate(82.08) scale(0.96 1)">m</text><text class="cls-3" transform="translate(247.81 179.22) rotate(92.08) scale(0.96 1)">e</text><text class="cls-3" transform="matrix(-0.16, 0.95, -0.99, -0.17, 247.61, 185.84)">n</text><text class="cls-3" transform="translate(246.37 192.69) rotate(106.45) scale(0.96 1)">t</text><text class="cls-3" transform="matrix(-0.35, 0.89, -0.93, -0.36, 245.06, 197.12)"> </text><path class="cls-4" d="M102.4,241.22c0,9.46-9.6,17.13-21.44,17.13H23.44C11.6,258.35,2,250.68,2,241.22V195.09C2,185.63,11.6,178,23.44,178H81c11.84,0,21.44,7.67,21.44,17.13Z"/><path class="cls-4" d="M211.76,345.43c0,9.46-9.6,17.13-21.44,17.13H132.81c-11.84,0-21.44-7.67-21.44-17.13V299.29c0-9.46,9.6-17.13,21.44-17.13h57.51c11.84,0,21.44,7.67,21.44,17.13Z"/><path class="cls-4" d="M354.58,309.27c0,9.46-9.6,17.13-21.44,17.13H275.63c-11.84,0-21.44-7.67-21.44-17.13V263.14c0-9.46,9.6-17.13,21.44-17.13h57.51c11.84,0,21.44,7.67,21.44,17.13Z"/><path class="cls-4" d="M273.69,60.49c0,8.77-9.6,15.89-21.44,15.89H194.74c-11.84,0-21.44-7.11-21.44-15.89V17.71c0-8.77,9.6-15.89,21.44-15.89h57.51c11.84,0,21.44,7.11,21.44,15.89Z"/><path class="cls-5" d="M136.66,107.11c0,9.55-9.6,17.29-21.44,17.29H57.7c-11.84,0-21.44-7.74-21.44-17.29V60.54c0-9.55,9.6-17.29,21.44-17.29h57.51c11.84,0,21.44,7.74,21.44,17.29Z"/><path class="cls-4" d="M399.3,173.08c0,10.58-10.65,19.16-23.78,19.16H311.74c-13.13,0-23.78-8.58-23.78-19.16V121.47c0-10.58,10.65-19.16,23.78-19.16h63.77c13.13,0,23.78,8.58,23.78,19.16Z"/><text class="cls-6" transform="translate(123.98 319.38) scale(0.96 1)"><tspan class="cls-7">Identify Need<tspan class="cls-8" x="76.23" y="0">:</tspan><tspan x="78.24" y="0"></tspan></tspan><tspan class="cls-9"><tspan x="3.84" y="14.56">Organizational</tspan></tspan><tspan class="cls-10"><tspan x="10.5" y="29.12">Assessment</tspan></tspan></text><text class="cls-6" transform="translate(15.12 215.08) scale(0.96 1)"><tspan class="cls-7">Gather Data<tspan class="cls-8" x="70.67" y="0">:</tspan><tspan x="72.68" y="0"></tspan></tspan><tspan class="cls-9"><tspan x="1.59" y="14.56">E</tspan><tspan class="cls-11" x="7.59" y="14.56">n</tspan><tspan class="cls-12" x="13.41" y="14.56">vi</tspan><tspan class="cls-13" x="21.27" y="14.56">r</tspan><tspan class="cls-12" x="25.71" y="14.56">onmental</tspan></tspan><tspan class="cls-10"><tspan x="7.72" y="29.12">Assessment</tspan></tspan></text><text class="cls-14" transform="translate(39.89 86.94) scale(0.92 1)">Ana<tspan class="cls-15" x="21.71" y="0">l</tspan><tspan x="24.46" y="0">y</tspan><tspan class="cls-16" x="30.22" y="0">z</tspan><tspan class="cls-17" x="35.87" y="0">e</tspan><tspan class="cls-18" x="42.14" y="0"> </tspan><tspan class="cls-19" x="43.57" y="0">W</tspan><tspan x="56.22" y="0">ork</tspan><tspan class="cls-20" x="74.29" y="0">f</tspan><tspan x="77.4" y="0">o</tspan><tspan class="cls-21" x="84.19" y="0">r</tspan><tspan x="88.9" y="0">ce</tspan><tspan x="2.4" y="14.56">Supp</tspan><tspan class="cls-15" x="29.25" y="14.56">l</tspan><tspan class="cls-17" x="32" y="14.56">y &amp; Demand</tspan></text><text class="cls-22" transform="translate(281.36 288.98) scale(0.96 1)">Monitor <tspan class="cls-23"><tspan x="-5.8" y="14.56">&amp; Evaluate</tspan></tspan></text><text class="cls-22" transform="translate(302.77 139.7) scale(0.96 1)">Close the G<tspan class="cls-24" x="65.02" y="0">a</tspan><tspan class="cls-23" x="71.16" y="0">ps</tspan><tspan class="cls-25" x="83.05" y="0">:</tspan><tspan class="cls-23" x="84.94" y="0"></tspan></text><text class="cls-26" transform="translate(294.34 153.98) scale(0.94 1)">Implement<tspan class="cls-27" x="50.56" y="0"> </tspan><tspan class="cls-28" x="52.24" y="0">W</tspan><tspan x="63.61" y="0">ork</tspan><tspan class="cls-29" x="80.37" y="0">f</tspan><tspan class="cls-30" x="83.1" y="0">o</tspan><tspan class="cls-31" x="89.62" y="0">r</tspan><tspan x="93.94" y="0">ce</tspan><tspan x="20.2" y="14.27">D</tspan><tspan class="cls-32" x="29.12" y="14.27">e</tspan><tspan class="cls-33" x="34.56" y="14.27">v</tspan><tspan x="39.45" y="14.27">elopment</tspan><tspan x="21.23" y="28.55">Components</tspan></text><text class="cls-34" transform="translate(144.8 297.19)">Step 1</text><text class="cls-34" transform="translate(32.77 192.24)">Step 2</text><text class="cls-35" transform="translate(70.24 64.79)">Step 3</text><text class="cls-34" transform="translate(203.62 20.88)">Step 4</text><text class="cls-36" transform="translate(190.46 46.97) scale(0.96 1)">Identify G<tspan class="cls-37" x="55.57" y="0">a</tspan><tspan class="cls-38" x="61.83" y="0">ps</tspan></text><text class="cls-34" transform="translate(329.1 120.6)">Step 5</text><text class="cls-34" transform="translate(286.84 268.58)">Step 6</text><polygon class="cls-39" points="307.05 87.51 281.13 84.11 297.03 63.37 307.05 87.51"/><polygon class="cls-39" points="354.83 214.07 336.26 232.47 329.61 207.19 354.83 214.07"/><polygon class="cls-39" points="245.53 335.71 220.29 328.95 238.77 310.47 245.53 335.71"/><polygon class="cls-39" points="85.95 297.35 80.91 271.71 105.64 280.17 85.95 297.35"/><polygon class="cls-39" points="41.47 158.39 58.77 138.81 67.08 163.58 41.47 158.39"/><polygon class="cls-39" points="140.44 36.22 166.06 41.41 148.76 61 140.44 36.22"/></svg>