<svg id="Layer_1" data-name="Layer 1" xmlns="http://www.w3.org/2000/svg" viewBox="0 0 400 363"><defs><style>.cls-1,.cls-2{fill:none;}.cls-1{stroke:#adc4d8;stroke-width:3px;}.cls-1,.cls-2,.cls-4,.cls-5{stroke-miterlimit:10;}.cls-2{stroke:#adc9e5;stroke-width:2px;}.cls-3{font-size:15.19px;}.cls-15,.cls-23,.cls-24,.cls-28,.cls-3,.cls-36,.cls-38,.cls-4,.cls-6{fill:#1f295c;}.cls-10,.cls-11,.cls-28,.cls-3,.cls-36,.cls-37{font-family:GillSansMT, Gill Sans MT;}.cls-4{stroke:#1f295c;}.cls-12,.cls-37,.cls-5{fill:#fff;}.cls-5{stroke:#9dc4a2;}.cls-12,.cls-15,.cls-23,.cls-24,.cls-28,.cls-38,.cls-6{font-size:12.05px;}.cls-12,.cls-15,.cls-23,.cls-24,.cls-38,.cls-6{font-family:GillSansMT-Bold, Gill Sans MT;}.cls-12,.cls-38,.cls-6{letter-spacing:-0.01em;}.cls-15,.cls-23,.cls-24,.cls-38,.cls-7{font-weight:700;}.cls-8{letter-spacing:-0.11em;}.cls-11,.cls-9{letter-spacing:0em;}.cls-13{letter-spacing:-0.02em;}.cls-14{letter-spacing:-0.03em;}.cls-15{letter-spacing:-0.04em;}.cls-16{letter-spacing:-0.04em;}.cls-17{letter-spacing:-0.06em;}.cls-18{letter-spacing:-0.03em;}.cls-19{letter-spacing:-0.16em;}.cls-20{letter-spacing:-0.12em;}.cls-21{letter-spacing:-0.04em;}.cls-22{letter-spacing:-0.06em;}.cls-23,.cls-26{letter-spacing:-0.02em;}.cls-24{letter-spacing:-0.01em;}.cls-25{letter-spacing:-0.02em;}.cls-27{letter-spacing:-0.12em;}.cls-28{letter-spacing:-0.01em;}.cls-29{letter-spacing:-0.14em;}.cls-30{letter-spacing:-0.1em;}.cls-31{letter-spacing:-0.02em;}.cls-32{letter-spacing:-0.02em;}.cls-33{letter-spacing:-0.04em;}.cls-34{letter-spacing:-0.03em;}.cls-35{letter-spacing:-0.04em;}.cls-36,.cls-37{font-size:13.17px;}.cls-39{letter-spacing:-0.01em;}.cls-40{fill:#78a3d0;}</style></defs><title>Artboard 1</title><circle class="cls-1" cx="197.73" cy="183.51" r="145.21"/><circle class="cls-2" cx="196.97" cy="180.27" r="64.77"/><text class="cls-3" transform="translate(150.92 196.33) rotate(-102.75) scale(0.96 1)">C</text><text class="cls-3" transform="translate(148.81 186.75) rotate(-92.63) scale(0.96 1)">o</text><text class="cls-3" transform="matrix(0.1, -0.96, 0.99, 0.1, 148.46, 179.16)">n</text><text class="cls-3" transform="matrix(0.21, -0.94, 0.98, 0.21, 149.2, 172.27)">t</text><text class="cls-3" transform="translate(150.21 167.78) rotate(-73.3) scale(0.96 1)">i</text><text class="cls-3" transform="translate(150.91 165.02) rotate(-67.66) scale(0.96 1)">n</text><text class="cls-3" transform="translate(153.45 158.75) rotate(-59.84) scale(0.96 1)">u</text><text class="cls-3" transform="translate(156.84 152.79) rotate(-51.44) scale(0.96 1)">o</text><text class="cls-3" transform="translate(161.57 146.85) rotate(-43.01) scale(0.96 1)">u</text><text class="cls-3" transform="matrix(0.78, -0.56, 0.59, 0.81, 166.64, 142.16)">s</text><text class="cls-3" transform="matrix(0.83, -0.49, 0.51, 0.86, 170.93, 139.07)"> </text><text class="cls-3" transform="matrix(0.89, -0.36, 0.38, 0.93, 173.9, 136.92)">Q</text><text class="cls-3" transform="matrix(0.94, -0.19, 0.2, 0.98, 184.56, 132.78)">u</text><text class="cls-3" transform="translate(191.34 131.42) rotate(-4.01) scale(0.96 1)">a</text><text class="cls-3" transform="translate(197.25 131.06) rotate(1.13) scale(0.96 1)">l</text><text class="cls-3" transform="translate(200.19 131.11) rotate(4.54) scale(0.96 1)">i</text><text class="cls-3" transform="translate(203.14 131.3) rotate(8.93) scale(0.96 1)">t</text><text class="cls-3" transform="translate(207.6 131.94) rotate(15) scale(0.96 1)">y</text><text class="cls-3" transform="translate(213.44 133.55) rotate(20.63) scale(0.96 1)"> </text><text class="cls-3" transform="matrix(0.87, 0.4, -0.42, 0.91, 216.99, 134.88)">I</text><text class="cls-3" transform="translate(220.06 135.97) rotate(32.91) scale(0.96 1)">m</text><text class="cls-3" transform="matrix(0.7, 0.66, -0.68, 0.73, 228.98, 141.9)">p</text><text class="cls-3" transform="matrix(0.61, 0.74, -0.77, 0.64, 234, 146.63)">r</text><text class="cls-3" transform="matrix(0.52, 0.81, -0.84, 0.54, 237.31, 150.43)">o</text><text class="cls-3" transform="translate(241.33 156.75) rotate(65.04) scale(0.96 1)">v</text><text class="cls-3" transform="translate(243.8 161.92) rotate(72.01) scale(0.96 1)">e</text><text class="cls-3" transform="translate(246.02 168.02) rotate(82.04) scale(0.96 1)">m</text><text class="cls-3" transform="matrix(-0.03, 0.96, -1, -0.04, 247.37, 178.67)">e</text><text class="cls-3" transform="matrix(-0.16, 0.95, -0.99, -0.17, 247.17, 185.22)">n</text><text class="cls-3" transform="matrix(-0.27, 0.92, -0.96, -0.28, 245.94, 192.04)">t</text><text class="cls-3" transform="translate(244.64 196.43) rotate(111.23) scale(0.96 1)"> </text><path class="cls-4" d="M102.89,240.28c0,9.4-9.54,17-21.3,17H24.45c-11.77,0-21.3-7.62-21.3-17V194.45c0-9.4,9.54-17,21.3-17H81.59c11.77,0,21.3,7.62,21.3,17Z"/><path class="cls-5" d="M211.55,343.81c0,9.4-9.54,17-21.3,17H133.11c-11.77,0-21.3-7.62-21.3-17V298c0-9.4,9.54-17,21.3-17h57.14c11.77,0,21.3,7.62,21.3,17Z"/><path class="cls-5" d="M353.45,307.9c0,9.4-9.54,17-21.3,17H275c-11.77,0-21.3-7.62-21.3-17V262.06c0-9.4,9.54-17,21.3-17h57.14c11.77,0,21.3,7.62,21.3,17Z"/><path class="cls-5" d="M273.08,60.73c0,8.72-9.54,15.78-21.3,15.78H194.64c-11.77,0-21.3-7.07-21.3-15.78V18.22c0-8.72,9.54-15.78,21.3-15.78h57.14c11.77,0,21.3,7.07,21.3,15.78Z"/><path class="cls-5" d="M136.93,107c0,9.49-9.54,17.18-21.3,17.18H58.49c-11.77,0-21.3-7.69-21.3-17.18V60.77c0-9.49,9.54-17.18,21.3-17.18h57.14c11.77,0,21.3,7.69,21.3,17.18Z"/><path class="cls-5" d="M397.87,172.58c0,10.51-10.58,19-23.62,19H310.89c-13,0-23.62-8.52-23.62-19V121.31c0-10.51,10.58-19,23.62-19h63.36c13,0,23.62,8.52,23.62,19Z"/><text class="cls-6" transform="translate(124.33 317.93) scale(0.96 1)"><tspan class="cls-7">Identify Need<tspan class="cls-8" x="75.74" y="0">:</tspan><tspan class="cls-9" x="77.74" y="0"></tspan></tspan><tspan class="cls-10"><tspan x="3.81" y="14.47">Organizational</tspan></tspan><tspan class="cls-11"><tspan x="10.43" y="28.93">Assessment</tspan></tspan></text><text class="cls-12" transform="translate(16.18 214.31) scale(0.96 1)"><tspan class="cls-7">Gather Data<tspan class="cls-8" x="70.21" y="0">:</tspan><tspan x="72.21" y="0"></tspan></tspan><tspan class="cls-10"><tspan x="1.58" y="14.47">E</tspan><tspan class="cls-13" x="7.54" y="14.47">n</tspan><tspan x="13.33" y="14.47">vi</tspan><tspan class="cls-14" x="21.13" y="14.47">r</tspan><tspan class="cls-9" x="25.54" y="14.47">onmental</tspan></tspan><tspan class="cls-11"><tspan x="7.67" y="28.93">Assessment</tspan></tspan></text><text class="cls-15" transform="translate(40.79 87) scale(0.92 1)">Ana<tspan class="cls-16" x="21.57" y="0">l</tspan><tspan x="24.3" y="0">y</tspan><tspan class="cls-17" x="30.02" y="0">z</tspan><tspan class="cls-18" x="35.64" y="0">e</tspan><tspan class="cls-19" x="41.87" y="0"> </tspan><tspan class="cls-20" x="43.29" y="0">W</tspan><tspan x="55.85" y="0">ork</tspan><tspan class="cls-21" x="73.81" y="0">f</tspan><tspan x="76.9" y="0">o</tspan><tspan class="cls-22" x="83.65" y="0">r</tspan><tspan x="88.33" y="0">ce</tspan><tspan x="2.39" y="14.47">Supp</tspan><tspan class="cls-21" x="29.06" y="14.47">l</tspan><tspan x="31.79" y="14.47">y &amp; Demand</tspan></text><text class="cls-23" transform="translate(280.69 287.73) scale(0.96 1)">Monitor <tspan x="-5.76" y="14.47">&amp; Evaluate</tspan></text><text class="cls-24" transform="translate(301.97 139.42) scale(0.96 1)">Close the G<tspan class="cls-25" x="64.6" y="0">a</tspan><tspan class="cls-26" x="70.7" y="0">ps</tspan><tspan class="cls-27" x="82.51" y="0">:</tspan><tspan class="cls-26" x="84.39" y="0"></tspan></text><text class="cls-28" transform="translate(293.59 153.61) scale(0.94 1)">Implement<tspan class="cls-29" x="50.24" y="0"> </tspan><tspan class="cls-30" x="51.9" y="0">W</tspan><tspan class="cls-31" x="63.2" y="0">ork</tspan><tspan class="cls-32" x="79.85" y="0">f</tspan><tspan x="82.57" y="0">o</tspan><tspan class="cls-33" x="89.04" y="0">r</tspan><tspan class="cls-31" x="93.33" y="0">ce</tspan><tspan x="20.07" y="14.18">D</tspan><tspan class="cls-34" x="28.93" y="14.18">e</tspan><tspan class="cls-35" x="34.34" y="14.18">v</tspan><tspan x="39.2" y="14.18">elopment</tspan><tspan x="21.09" y="28.36">Components</tspan></text><text class="cls-36" transform="translate(145.02 295.89)">Step 1</text><text class="cls-37" transform="translate(33.71 191.62)">Step 2</text><text class="cls-36" transform="translate(70.94 65)">Step 3</text><text class="cls-36" transform="translate(203.46 21.37)">Step 4</text><text class="cls-38" transform="translate(190.39 47.29) scale(0.96 1)">Identify G<tspan class="cls-39" x="55.21" y="0">a</tspan><tspan x="61.43" y="0">ps</tspan></text><text class="cls-36" transform="translate(328.13 120.45)">Step 5</text><text class="cls-36" transform="translate(286.15 267.46)">Step 6</text><polygon class="cls-40" points="306.22 87.57 280.47 84.19 296.27 63.58 306.22 87.57"/><polygon class="cls-40" points="353.69 213.31 335.25 231.58 328.64 206.47 353.69 213.31"/><polygon class="cls-40" points="245.1 334.16 220.02 327.44 238.38 309.08 245.1 334.16"/><polygon class="cls-40" points="86.55 296.05 81.54 270.57 106.11 278.98 86.55 296.05"/><polygon class="cls-40" points="42.36 157.99 59.55 138.53 67.81 163.15 42.36 157.99"/><polygon class="cls-40" points="140.69 36.61 166.14 41.77 148.95 61.23 140.69 36.61"/></svg>