<svg id="Layer_1" data-name="Layer 1" xmlns="http://www.w3.org/2000/svg" viewBox="0 0 400 365.78"><defs><style>.cls-1,.cls-2{fill:none;}.cls-1{stroke:#adc4d8;stroke-width:3px;}.cls-1,.cls-2,.cls-4,.cls-5{stroke-miterlimit:10;}.cls-2{stroke:#adc9e5;stroke-width:2px;}.cls-3{font-size:15.22px;}.cls-11,.cls-18,.cls-25,.cls-28,.cls-3,.cls-36,.cls-5,.cls-6{fill:#1f295c;}.cls-10,.cls-14,.cls-28,.cls-3,.cls-36,.cls-37{font-family:GillSansMT, Gill Sans MT;}.cls-37,.cls-38,.cls-4{fill:#fff;}.cls-4{stroke:#9dc4a2;}.cls-5{stroke:#1f295c;}.cls-11,.cls-18,.cls-25,.cls-28,.cls-38,.cls-6{font-size:12.08px;}.cls-11,.cls-18,.cls-25,.cls-38,.cls-6{font-family:GillSansMT-Bold, Gill Sans MT;}.cls-13,.cls-38,.cls-6{letter-spacing:0em;}.cls-18,.cls-25,.cls-38,.cls-7{font-weight:700;}.cls-8{letter-spacing:-0.11em;}.cls-10,.cls-11,.cls-9{letter-spacing:-0.01em;}.cls-12{letter-spacing:-0.11em;}.cls-15{letter-spacing:-0.02em;}.cls-16{letter-spacing:-0.03em;}.cls-17{letter-spacing:-0.01em;}.cls-18{letter-spacing:-0.04em;}.cls-19{letter-spacing:-0.04em;}.cls-20{letter-spacing:-0.03em;}.cls-21{letter-spacing:-0.06em;}.cls-22{letter-spacing:-0.16em;}.cls-23{letter-spacing:-0.12em;}.cls-24{letter-spacing:-0.06em;}.cls-25{letter-spacing:-0.01em;}.cls-26{letter-spacing:-0.02em;}.cls-27{letter-spacing:-0.12em;}.cls-28{letter-spacing:-0.02em;}.cls-29{letter-spacing:-0.14em;}.cls-30{letter-spacing:-0.1em;}.cls-31{letter-spacing:-0.02em;}.cls-32{letter-spacing:-0.04em;}.cls-33{letter-spacing:-0.01em;}.cls-34{letter-spacing:-0.03em;}.cls-35{letter-spacing:-0.03em;}.cls-36,.cls-37{font-size:13.19px;}.cls-39{letter-spacing:-0.01em;}.cls-40{fill:#78a3d0;}</style></defs><title>Artboard 1</title><circle class="cls-1" cx="198.09" cy="184.23" r="145.48"/><circle class="cls-2" cx="197.33" cy="180.99" r="64.89"/><text class="cls-3" transform="translate(151.2 197.08) rotate(-102.75) scale(0.96 1)">C</text><text class="cls-3" transform="matrix(-0.04, -0.96, 1, -0.05, 149.08, 187.5)">o</text><text class="cls-3" transform="matrix(0.1, -0.96, 0.99, 0.1, 148.73, 179.88)">n</text><text class="cls-3" transform="translate(149.47 172.98) rotate(-77.65) scale(0.96 1)">t</text><text class="cls-3" transform="translate(150.47 168.49) rotate(-73.32) scale(0.96 1)">i</text><text class="cls-3" transform="translate(151.19 165.71) rotate(-67.66) scale(0.96 1)">n</text><text class="cls-3" transform="matrix(0.48, -0.83, 0.86, 0.5, 153.72, 159.44)">u</text><text class="cls-3" transform="matrix(0.6, -0.75, 0.78, 0.62, 157.12, 153.46)">o</text><text class="cls-3" transform="translate(161.86 147.51) rotate(-43.01) scale(0.96 1)">u</text><text class="cls-3" transform="matrix(0.78, -0.56, 0.59, 0.81, 166.94, 142.81)">s</text><text class="cls-3" transform="translate(171.24 139.72) rotate(-30.74) scale(0.96 1)"> </text><text class="cls-3" transform="matrix(0.89, -0.36, 0.38, 0.93, 174.21, 137.56)">Q</text><text class="cls-3" transform="translate(184.9 133.41) rotate(-11.46) scale(0.96 1)">u</text><text class="cls-3" transform="matrix(0.96, -0.07, 0.07, 1, 191.69, 132.05)">a</text><text class="cls-3" transform="translate(197.61 131.69) rotate(1.13) scale(0.96 1)">l</text><text class="cls-3" transform="translate(200.56 131.74) rotate(4.54) scale(0.96 1)">i</text><text class="cls-3" transform="matrix(0.95, 0.15, -0.16, 0.99, 203.52, 131.93)">t</text><text class="cls-3" transform="translate(207.98 132.57) rotate(15) scale(0.96 1)">y</text><text class="cls-3" transform="matrix(0.9, 0.34, -0.35, 0.94, 213.83, 134.18)"> </text><text class="cls-3" transform="translate(217.39 135.52) rotate(24.79) scale(0.96 1)">I</text><text class="cls-3" transform="translate(220.48 136.62) rotate(32.93) scale(0.96 1)">m</text><text class="cls-3" transform="matrix(0.7, 0.66, -0.68, 0.73, 229.4, 142.55)">p</text><text class="cls-3" transform="matrix(0.61, 0.74, -0.77, 0.64, 234.43, 147.29)">r</text><text class="cls-3" transform="matrix(0.52, 0.81, -0.84, 0.54, 237.76, 151.11)">o</text><text class="cls-3" transform="matrix(0.4, 0.87, -0.91, 0.42, 241.78, 157.45)">v</text><text class="cls-3" transform="translate(244.25 162.61) rotate(72.01) scale(0.96 1)">e</text><text class="cls-3" transform="matrix(0.13, 0.95, -0.99, 0.14, 246.47, 168.72)">m</text><text class="cls-3" transform="translate(247.82 179.4) rotate(92.08) scale(0.96 1)">e</text><text class="cls-3" transform="translate(247.62 185.97) rotate(99.85) scale(0.96 1)">n</text><text class="cls-3" transform="matrix(-0.27, 0.92, -0.96, -0.28, 246.39, 192.81)">t</text><text class="cls-3" transform="matrix(-0.35, 0.89, -0.93, -0.36, 245.09, 197.18)"> </text><path class="cls-4" d="M103.08,241.11c0,9.42-9.56,17.05-21.34,17.05H24.49c-11.79,0-21.34-7.63-21.34-17.05V195.19c0-9.42,9.56-17.05,21.34-17.05H81.73c11.79,0,21.34,7.63,21.34,17.05Z"/><path class="cls-4" d="M211.94,344.84c0,9.42-9.56,17.05-21.34,17.05H133.35c-11.79,0-21.34-7.63-21.34-17.05V298.92c0-9.42,9.56-17.05,21.34-17.05h57.25c11.79,0,21.34,7.63,21.34,17.05Z"/><path class="cls-4" d="M354.1,308.85c0,9.42-9.56,17.05-21.34,17.05H275.51c-11.79,0-21.34-7.63-21.34-17.05V262.93c0-9.42,9.56-17.05,21.34-17.05h57.25c11.79,0,21.34,7.63,21.34,17.05Z"/><path class="cls-5" d="M273.58,61.22C273.58,70,264,77,252.24,77H195C183.2,77,173.65,70,173.65,61.22V18.63c0-8.73,9.56-15.81,21.34-15.81h57.25c11.79,0,21.34,7.08,21.34,15.81Z"/><path class="cls-4" d="M137.18,107.63c0,9.51-9.56,17.21-21.34,17.21H58.59c-11.79,0-21.34-7.71-21.34-17.21V61.27c0-9.51,9.56-17.21,21.34-17.21h57.25c11.79,0,21.34,7.71,21.34,17.21Z"/><path class="cls-4" d="M398.61,173.29c0,10.53-10.6,19.07-23.67,19.07H311.46c-13.07,0-23.67-8.54-23.67-19.07V121.92c0-10.53,10.6-19.07,23.67-19.07h63.48c13.07,0,23.67,8.54,23.67,19.07Z"/><text class="cls-6" transform="translate(124.56 318.91) scale(0.96 1)"><tspan class="cls-7">Identify Need<tspan class="cls-8" x="75.88" y="0">:</tspan><tspan class="cls-9" x="77.88" y="0"></tspan></tspan><tspan class="cls-10"><tspan x="3.82" y="14.49">Organizational</tspan><tspan x="10.45" y="28.99">Assessment</tspan></tspan></text><text class="cls-11" transform="translate(16.2 215.1) scale(0.96 1)"><tspan class="cls-7">Gather Data<tspan class="cls-12" x="70.34" y="0">:</tspan><tspan class="cls-13" x="72.35" y="0"></tspan></tspan><tspan class="cls-14"><tspan x="1.58" y="14.49">E</tspan><tspan class="cls-15" x="7.56" y="14.49">n</tspan><tspan class="cls-13" x="13.35" y="14.49">vi</tspan><tspan class="cls-16" x="21.17" y="14.49">r</tspan><tspan class="cls-17" x="25.59" y="14.49">onmental</tspan><tspan x="7.68" y="28.99">Assessment</tspan></tspan></text><text class="cls-18" transform="translate(40.86 87.55) scale(0.92 1)">Ana<tspan class="cls-19" x="21.61" y="0">l</tspan><tspan class="cls-20" x="24.35" y="0">y</tspan><tspan class="cls-21" x="30.08" y="0">z</tspan><tspan class="cls-20" x="35.71" y="0">e</tspan><tspan class="cls-22" x="41.95" y="0"> </tspan><tspan class="cls-23" x="43.37" y="0">W</tspan><tspan class="cls-20" x="55.96" y="0">ork</tspan><tspan class="cls-19" x="73.94" y="0">f</tspan><tspan x="77.05" y="0">o</tspan><tspan class="cls-24" x="83.8" y="0">r</tspan><tspan class="cls-20" x="88.49" y="0">ce</tspan><tspan x="2.39" y="14.49">Supp</tspan><tspan class="cls-19" x="29.12" y="14.49">l</tspan><tspan class="cls-20" x="31.85" y="14.49">y &amp; Demand</tspan></text><text class="cls-25" transform="translate(281.21 288.65) scale(0.96 1)">Monitor <tspan x="-5.77" y="14.49">&amp; Evaluate</tspan></text><text class="cls-25" transform="translate(302.53 140.07) scale(0.96 1)">Close the G<tspan class="cls-26" x="64.72" y="0">a</tspan><tspan x="70.83" y="0">ps</tspan><tspan class="cls-27" x="82.67" y="0">:</tspan><tspan x="84.55" y="0"></tspan></text><text class="cls-28" transform="translate(294.13 154.28) scale(0.94 1)">Implement<tspan class="cls-29" x="50.33" y="0"> </tspan><tspan class="cls-30" x="51.99" y="0">W</tspan><tspan x="63.31" y="0">ork</tspan><tspan class="cls-31" x="80" y="0">f</tspan><tspan x="82.72" y="0">o</tspan><tspan class="cls-32" x="89.2" y="0">r</tspan><tspan class="cls-33" x="93.5" y="0">ce</tspan><tspan x="20.1" y="14.21">D</tspan><tspan class="cls-34" x="28.98" y="14.21">e</tspan><tspan class="cls-35" x="34.4" y="14.21">v</tspan><tspan x="39.27" y="14.21">elopment</tspan><tspan class="cls-33" x="21.13" y="28.42">Components</tspan></text><text class="cls-36" transform="translate(145.29 296.83)">Step 1</text><text class="cls-36" transform="translate(33.77 192.36)">Step 2</text><text class="cls-36" transform="translate(71.07 65.5)">Step 3</text><text class="cls-37" transform="translate(203.83 21.8)">Step 4</text><text class="cls-38" transform="translate(190.73 47.77) scale(0.96 1)">Identify G<tspan class="cls-39" x="55.31" y="0">a</tspan><tspan class="cls-9" x="61.54" y="0">ps</tspan></text><text class="cls-36" transform="translate(328.73 121.06)">Step 5</text><text class="cls-36" transform="translate(286.67 268.35)">Step 6</text><polygon class="cls-40" points="306.78 88.11 280.99 84.73 296.81 64.09 306.78 88.11"/><polygon class="cls-40" points="354.34 214.09 335.86 232.4 329.25 207.24 354.34 214.09"/><polygon class="cls-40" points="245.55 335.17 220.42 328.44 238.82 310.04 245.55 335.17"/><polygon class="cls-40" points="86.7 296.99 81.69 271.46 106.3 279.88 86.7 296.99"/><polygon class="cls-40" points="42.43 158.67 59.65 139.17 67.93 163.84 42.43 158.67"/><polygon class="cls-40" points="140.95 37.06 166.44 42.23 149.22 61.73 140.95 37.06"/></svg>