<svg id="Layer_1" data-name="Layer 1" xmlns="http://www.w3.org/2000/svg" viewBox="0 0 300 248.98"><defs><style>.cls-1,.cls-10,.cls-21,.cls-24,.cls-32,.cls-4,.cls-6{fill:#fff;}.cls-1{stroke:#adcde0;}.cls-1,.cls-2,.cls-5{stroke-miterlimit:10;}.cls-1,.cls-2{stroke-width:4px;}.cls-2,.cls-3,.cls-5{fill:#1f295c;}.cls-2{stroke:#1f295c;}.cls-4{font-size:10.12px;}.cls-21,.cls-4{font-family:GillSansMT-Bold, Gill Sans MT;font-weight:700;}.cls-5{stroke:#fff;}.cls-6{font-size:8.64px;}.cls-10,.cls-24,.cls-32,.cls-6{font-family:GillSansMT, Gill Sans MT;}.cls-7{letter-spacing:-0.1em;}.cls-8{letter-spacing:-0.1em;}.cls-9{letter-spacing:-0.06em;}.cls-10{font-size:7.54px;}.cls-11{letter-spacing:-0.02em;}.cls-12{letter-spacing:0em;}.cls-13{letter-spacing:-0.1em;}.cls-14{letter-spacing:-0.01em;}.cls-15{letter-spacing:-0.02em;}.cls-16{letter-spacing:0em;}.cls-17{letter-spacing:-0.01em;}.cls-18{letter-spacing:-0.02em;}.cls-19{letter-spacing:-0.02em;}.cls-20{letter-spacing:-0.13em;}.cls-21,.cls-24{font-size:7.28px;}.cls-21{letter-spacing:-0.02em;}.cls-22{letter-spacing:-0.02em;}.cls-23{letter-spacing:-0.12em;}.cls-24{letter-spacing:-0.02em;}.cls-25{letter-spacing:-0.14em;}.cls-26{letter-spacing:-0.1em;}.cls-27{letter-spacing:-0.01em;}.cls-28{letter-spacing:-0.02em;}.cls-29{letter-spacing:-0.04em;}.cls-30{letter-spacing:-0.03em;}.cls-31{letter-spacing:-0.04em;}.cls-32{font-size:7.96px;}.cls-33{letter-spacing:0.03em;}.cls-34{letter-spacing:-0.02em;}.cls-35{letter-spacing:-0.09em;}</style></defs><title>Artboard 1</title><path class="cls-1" d="M177.81,3.28a119,119,0,0,0-67,20.51H10.65a7,7,0,0,0-7,7v53a7,7,0,0,0,7,7H62.59A119.56,119.56,0,1,0,177.81,3.28Z"/><path class="cls-2" d="M81.1,77.3c0,3.49-2.43,6.32-5.44,6.32H18.72c-3,0-5.44-2.83-5.44-6.32V38.38c0-3.49,2.43-6.32,5.44-6.32H75.66c3,0,5.44,2.83,5.44,6.32Z"/><circle class="cls-3" cx="238.17" cy="61.66" r="30.25" transform="translate(90.75 258.62) rotate(-67.7)"/><circle class="cls-3" cx="177.72" cy="122.5" r="40.53" transform="translate(-10.05 228.97) rotate(-64.13)"/><text class="cls-4" transform="translate(154.49 101.03) rotate(-36.69)">L</text><text class="cls-4" transform="matrix(0.89, -0.46, 0.46, 0.89, 159.19, 97.52)">e</text><text class="cls-4" transform="translate(163.81 95.08) rotate(-19.38)">a</text><text class="cls-4" transform="translate(168.53 93.37) rotate(-10.95)">d</text><text class="cls-4" transform="translate(173.94 92.3) rotate(-2.24)">e</text><text class="cls-4" transform="translate(179.21 92.11) rotate(5.51)">r</text><text class="cls-4" transform="translate(183.4 92.5) rotate(12.18)">s</text><text class="cls-4" transform="translate(187.34 93.28) rotate(19.94)">h</text><text class="cls-4" transform="matrix(0.9, 0.44, -0.44, 0.9, 192.56, 95.25)">i</text><text class="cls-4" transform="matrix(0.84, 0.54, -0.54, 0.84, 194.81, 96.24)">p</text><circle class="cls-3" cx="263.82" cy="122.32" r="30.25" transform="translate(50.55 320) rotate(-67.7)"/><circle class="cls-3" cx="238.95" cy="182.97" r="30.25" transform="translate(-21.01 334.63) rotate(-67.7)"/><circle class="cls-3" cx="178.11" cy="208.11" r="30.25" transform="translate(-82.02 293.94) rotate(-67.7)"/><circle class="cls-3" cx="117.49" cy="183.26" r="30.25" transform="translate(-96.64 222.43) rotate(-67.7)"/><circle class="cls-3" cx="93.14" cy="123.18" r="30.25" transform="translate(-56.17 162.61) rotate(-67.7)"/><circle class="cls-3" cx="118.01" cy="62.52" r="30.25" transform="translate(15.39 147.99) rotate(-67.7)"/><path class="cls-3" d="M205.54,48.28A30.25,30.25,0,1,1,186,7.74,30.58,30.58,0,0,1,189,8.82,30.25,30.25,0,0,1,205.54,48.28Z"/><polygon class="cls-3" points="172.99 82.65 172.99 78.09 169.53 78.09 177.68 72.02 185.58 78.18 182.16 78.19 182.16 82.65 172.99 82.65"/><polygon class="cls-3" points="173.55 163.21 173.55 167.77 170.08 167.77 178.23 173.84 186.14 167.68 182.72 167.67 182.72 163.21 173.55 163.21"/><polygon class="cls-3" points="217.94 126.88 222.51 126.88 222.51 130.34 228.57 122.19 222.41 114.29 222.41 117.71 217.94 117.71 217.94 126.88"/><polygon class="cls-3" points="138.07 126.88 133.5 126.88 133.5 130.34 127.44 122.19 133.6 114.29 133.6 117.71 138.07 117.71 138.07 126.88"/><polygon class="cls-3" points="145.87 97.45 142.65 94.22 140.2 96.67 141.67 86.62 151.62 85.39 149.2 87.81 152.35 90.97 145.87 97.45"/><polygon class="cls-3" points="209.09 97.45 212.32 94.22 214.77 96.67 213.29 86.62 203.35 85.39 205.77 87.81 202.61 90.97 209.09 97.45"/><polygon class="cls-3" points="209.09 147.41 212.32 150.63 214.77 148.18 213.29 158.23 203.35 159.47 205.77 157.04 202.61 153.89 209.09 147.41"/><polygon class="cls-3" points="145.87 147.41 142.65 150.63 140.2 148.18 141.67 158.23 151.62 159.47 149.2 157.04 152.35 153.89 145.87 147.41"/><circle class="cls-5" cx="177.54" cy="123.05" r="27.85" transform="translate(-10.64 229.11) rotate(-64.13)"/><text class="cls-6" transform="translate(164.38 112.7) scale(1.06 1)">Vision<tspan class="cls-7" x="21.43" y="0">,</tspan><tspan x="-2.43" y="9.3">Mission</tspan><tspan class="cls-8" x="23.85" y="9.3">,</tspan><tspan class="cls-9" x="0.19" y="18.6">V</tspan><tspan x="4.89" y="18.6">alues</tspan></text><text class="cls-10" transform="translate(160.54 28.27) scale(1.05 1)"><tspan class="cls-11">J</tspan><tspan class="cls-12" x="1.74" y="0">ob</tspan><tspan class="cls-13" x="9.67" y="0"> </tspan><tspan x="11.01" y="0">Ana</tspan><tspan class="cls-14" x="23.03" y="0">l</tspan><tspan x="24.61" y="0">ysis</tspan><tspan x="2.04" y="7.71">&amp; </tspan><tspan class="cls-15" x="8.86" y="7.71">P</tspan><tspan x="12.51" y="7.71">osition</tspan><tspan x="-3.53" y="15.42">Requi</tspan><tspan class="cls-11" x="13.84" y="15.42">r</tspan><tspan class="cls-16" x="16.67" y="15.42">ements</tspan></text><text class="cls-10" transform="translate(158.86 203.29) scale(1.05 1)">P<tspan class="cls-15" x="3.85" y="0">r</tspan><tspan x="6.64" y="0">o</tspan><tspan class="cls-17" x="10.81" y="0">f</tspan><tspan class="cls-16" x="12.62" y="0">essional</tspan><tspan x="-2.36" y="7.71">D</tspan><tspan class="cls-18" x="3.29" y="7.71">e</tspan><tspan class="cls-19" x="6.79" y="7.71">v</tspan><tspan x="9.95" y="7.71">elopment</tspan><tspan x="3.37" y="15.42">&amp;</tspan><tspan class="cls-20" x="8.09" y="15.42" xml:space="preserve"> T</tspan><tspan x="12.85" y="15.42">raining</tspan></text><text class="cls-21" transform="translate(22.66 52.79) scale(0.96 1)">Close the G<tspan class="cls-22" x="39.04" y="0">a</tspan><tspan x="42.72" y="0">ps</tspan><tspan class="cls-23" x="49.86" y="0">:</tspan><tspan x="50.99" y="0"></tspan></text><text class="cls-24" transform="translate(17.59 61.36) scale(0.94 1)">Implement<tspan class="cls-25" x="30.35" y="0"> </tspan><tspan class="cls-26" x="31.36" y="0">W</tspan><tspan class="cls-27" x="38.19" y="0">ork</tspan><tspan class="cls-28" x="48.25" y="0">f</tspan><tspan class="cls-27" x="49.89" y="0">o</tspan><tspan class="cls-29" x="53.8" y="0">r</tspan><tspan class="cls-27" x="56.39" y="0">ce</tspan><tspan class="cls-27" x="12.13" y="8.57">D</tspan><tspan class="cls-30" x="17.48" y="8.57">e</tspan><tspan class="cls-31" x="20.75" y="8.57">v</tspan><tspan class="cls-27" x="23.68" y="8.57">elopment</tspan><tspan class="cls-27" x="12.75" y="17.14">Components</tspan></text><text class="cls-32" transform="translate(38.46 41.32)">Step 5</text><text class="cls-10" transform="translate(99.72 54.47) scale(1.05 1)">Supe<tspan class="cls-33" x="14.61" y="0">r</tspan><tspan x="17.82" y="0">vision</tspan><tspan x="-5.24" y="7.71">&amp; </tspan><tspan class="cls-15" x="1.57" y="7.71">P</tspan><tspan class="cls-16" x="5.23" y="7.71">er</tspan><tspan class="cls-14" x="11.83" y="7.71">f</tspan><tspan class="cls-12" x="13.64" y="7.71">ormance</tspan><tspan x="-1.69" y="15.42">Management</tspan></text><text class="cls-10" transform="translate(73.42 121.97) scale(1.05 1)">Com<tspan class="cls-17" x="15.32" y="0">m</tspan><tspan x="21.06" y="0">unity</tspan><tspan x="5.2" y="7.71">Context</tspan></text><text class="cls-10" transform="translate(94.4 181.97) scale(1.05 1)">Organizational<tspan x="2.78" y="7.71">E</tspan><tspan class="cls-34" x="6.55" y="7.71">n</tspan><tspan x="10.21" y="7.71">vi</tspan><tspan class="cls-15" x="15.17" y="7.71">r</tspan><tspan x="17.97" y="7.71">onment</tspan></text><text class="cls-10" transform="translate(223.32 178.83) scale(1.05 1)">Incenti<tspan class="cls-11" x="20.51" y="0">v</tspan><tspan x="23.67" y="0">es</tspan><tspan x="3.18" y="7.71">&amp;</tspan><tspan class="cls-20" x="7.9" y="7.71"> </tspan><tspan class="cls-35" x="9.05" y="7.71">W</tspan><tspan x="16.24" y="7.71">ork</tspan><tspan x="-1.8" y="15.42">Conditions</tspan></text><text class="cls-10" transform="translate(222.41 54.88) scale(1.05 1)">Education<tspan x="-6.65" y="7.71">&amp; P</tspan><tspan class="cls-15" x="4.01" y="7.71">r</tspan><tspan x="6.81" y="7.71">o</tspan><tspan class="cls-17" x="10.97" y="7.71">f</tspan><tspan x="12.78" y="7.71">essional</tspan><tspan x="-2.79" y="15.42">P</tspan><tspan class="cls-19" x="1.06" y="15.42">r</tspan><tspan x="3.89" y="15.42">eparation</tspan></text><text class="cls-10" transform="translate(243.34 117.9) scale(1.05 1)">Recruitment<tspan class="cls-13" x="38.11" y="0">,</tspan><tspan x="1.48" y="7.71">Sc</tspan><tspan class="cls-11" x="8.24" y="7.71">r</tspan><tspan x="11.08" y="7.71">eening &amp;</tspan><tspan x="5.64" y="15.42">Selection</tspan></text></svg>