<svg id="Layer_1" data-name="Layer 1" xmlns="http://www.w3.org/2000/svg" viewBox="0 0 400 362.93"><defs><style>.cls-1,.cls-2{fill:none;}.cls-1{stroke:#adc4d8;stroke-width:3px;}.cls-1,.cls-2,.cls-4{stroke-miterlimit:10;}.cls-2{stroke:#adc9e5;stroke-width:2px;}.cls-3{font-size:15.23px;}.cls-12,.cls-16,.cls-25,.cls-28,.cls-3,.cls-37,.cls-38,.cls-5{fill:#1f295c;}.cls-10,.cls-11,.cls-28,.cls-3,.cls-36,.cls-37{font-family:GillSansMT, Gill Sans MT;}.cls-36,.cls-4,.cls-6{fill:#fff;}.cls-4{stroke:#9dc4a2;}.cls-12,.cls-16,.cls-25,.cls-28,.cls-38,.cls-6{font-size:12.09px;}.cls-12,.cls-16,.cls-25,.cls-38,.cls-6{font-family:GillSansMT-Bold, Gill Sans MT;}.cls-13,.cls-38,.cls-6{letter-spacing:0em;}.cls-16,.cls-25,.cls-38,.cls-7{font-weight:700;}.cls-8{letter-spacing:-0.11em;}.cls-11,.cls-12,.cls-9{letter-spacing:-0.01em;}.cls-14{letter-spacing:-0.02em;}.cls-15{letter-spacing:-0.03em;}.cls-16{letter-spacing:-0.04em;}.cls-17{letter-spacing:-0.04em;}.cls-18{letter-spacing:-0.03em;}.cls-19{letter-spacing:-0.06em;}.cls-20{letter-spacing:-0.16em;}.cls-21{letter-spacing:-0.12em;}.cls-22{letter-spacing:-0.06em;}.cls-23{letter-spacing:-0.04em;}.cls-24{letter-spacing:-0.04em;}.cls-25{letter-spacing:-0.01em;}.cls-26{letter-spacing:-0.02em;}.cls-27{letter-spacing:-0.12em;}.cls-28{letter-spacing:-0.02em;}.cls-29{letter-spacing:-0.14em;}.cls-30{letter-spacing:-0.1em;}.cls-31{letter-spacing:-0.02em;}.cls-32{letter-spacing:-0.04em;}.cls-33{letter-spacing:-0.02em;}.cls-34{letter-spacing:-0.03em;}.cls-35{letter-spacing:-0.04em;}.cls-36,.cls-37{font-size:13.2px;}.cls-39{letter-spacing:-0.01em;}.cls-40{fill:#78a3d0;}</style></defs><title>Artboard 1</title><circle class="cls-1" cx="197.35" cy="183.53" r="145.57"/><circle class="cls-2" cx="196.59" cy="180.29" r="64.93"/><text class="cls-3" transform="translate(150.43 196.38) rotate(-102.75) scale(0.96 1)">C</text><text class="cls-3" transform="translate(148.31 186.8) rotate(-92.66) scale(0.96 1)">o</text><text class="cls-3" transform="translate(147.96 179.17) rotate(-84.25) scale(0.96 1)">n</text><text class="cls-3" transform="matrix(0.21, -0.94, 0.98, 0.21, 148.7, 172.26)">t</text><text class="cls-3" transform="matrix(0.28, -0.92, 0.96, 0.29, 149.7, 167.8)">i</text><text class="cls-3" transform="translate(150.42 164.99) rotate(-67.66) scale(0.96 1)">n</text><text class="cls-3" transform="matrix(0.48, -0.83, 0.86, 0.5, 152.95, 158.74)">u</text><text class="cls-3" transform="matrix(0.6, -0.75, 0.78, 0.62, 156.36, 152.74)">o</text><text class="cls-3" transform="matrix(0.7, -0.66, 0.68, 0.73, 161.09, 146.8)">u</text><text class="cls-3" transform="matrix(0.78, -0.56, 0.59, 0.81, 166.18, 142.08)">s</text><text class="cls-3" transform="matrix(0.83, -0.49, 0.51, 0.86, 170.49, 138.98)"> </text><text class="cls-3" transform="matrix(0.89, -0.36, 0.38, 0.93, 173.46, 136.83)">Q</text><text class="cls-3" transform="translate(184.16 132.68) rotate(-11.46) scale(0.96 1)">u</text><text class="cls-3" transform="translate(190.95 131.31) rotate(-4.01) scale(0.96 1)">a</text><text class="cls-3" transform="translate(196.88 130.95) rotate(1.13) scale(0.96 1)">l</text><text class="cls-3" transform="matrix(0.96, 0.08, -0.08, 1, 199.82, 131)">i</text><text class="cls-3" transform="matrix(0.95, 0.15, -0.16, 0.99, 202.78, 131.19)">t</text><text class="cls-3" transform="translate(207.25 131.83) rotate(15) scale(0.96 1)">y</text><text class="cls-3" transform="translate(213.1 133.44) rotate(20.63) scale(0.96 1)"> </text><text class="cls-3" transform="translate(216.66 134.78) rotate(24.79) scale(0.96 1)">I</text><text class="cls-3" transform="translate(219.75 135.88) rotate(32.93) scale(0.96 1)">m</text><text class="cls-3" transform="matrix(0.7, 0.66, -0.68, 0.73, 228.68, 141.81)">p</text><text class="cls-3" transform="matrix(0.61, 0.74, -0.77, 0.64, 233.72, 146.56)">r</text><text class="cls-3" transform="matrix(0.52, 0.81, -0.84, 0.54, 237.05, 150.38)">o</text><text class="cls-3" transform="translate(241.07 156.72) rotate(65.06) scale(0.96 1)">v</text><text class="cls-3" transform="translate(243.54 161.89) rotate(72.01) scale(0.96 1)">e</text><text class="cls-3" transform="translate(245.77 168) rotate(82.04) scale(0.96 1)">m</text><text class="cls-3" transform="translate(247.12 178.69) rotate(92.08) scale(0.96 1)">e</text><text class="cls-3" transform="translate(246.92 185.27) rotate(99.85) scale(0.96 1)">n</text><text class="cls-3" transform="translate(245.68 192.12) rotate(106.45) scale(0.96 1)">t</text><text class="cls-3" transform="translate(244.39 196.49) rotate(111.23) scale(0.96 1)"> </text><path class="cls-4" d="M102.28,240.45c0,9.43-9.56,17.06-21.36,17.06H23.64c-11.8,0-21.36-7.64-21.36-17.06V194.5c0-9.42,9.56-17.06,21.36-17.06H80.92c11.8,0,21.36,7.64,21.36,17.06Z"/><path class="cls-5" d="M211.21,344.24c0,9.43-9.56,17.06-21.36,17.06H132.57c-11.8,0-21.36-7.64-21.36-17.06V298.29c0-9.42,9.56-17.06,21.36-17.06h57.28c11.8,0,21.36,7.64,21.36,17.06Z"/><path class="cls-4" d="M353.46,308.23c0,9.42-9.56,17.06-21.36,17.06H274.82c-11.8,0-21.36-7.64-21.36-17.06v-46c0-9.42,9.56-17.06,21.36-17.06h57.28c11.8,0,21.36,7.64,21.36,17.06Z"/><path class="cls-4" d="M272.9,60.44c0,8.74-9.56,15.82-21.36,15.82H194.26c-11.8,0-21.36-7.08-21.36-15.82V17.82C172.9,9.09,182.46,2,194.26,2h57.28c11.8,0,21.36,7.09,21.36,15.82Z"/><path class="cls-4" d="M136.41,106.87c0,9.51-9.56,17.22-21.36,17.22H57.76c-11.8,0-21.36-7.71-21.36-17.22V60.48C36.41,51,46,43.26,57.76,43.26H115c11.8,0,21.36,7.71,21.36,17.23Z"/><path class="cls-4" d="M398,172.58c0,10.54-10.6,19.09-23.68,19.09H310.8c-13.08,0-23.68-8.54-23.68-19.09v-51.4c0-10.54,10.6-19.08,23.68-19.08h63.52c13.08,0,23.68,8.55,23.68,19.08Z"/><text class="cls-6" transform="translate(123.78 318.29) scale(0.96 1)"><tspan class="cls-7">Identify Need<tspan class="cls-8" x="75.93" y="0">:</tspan><tspan class="cls-9" x="77.93" y="0"></tspan></tspan><tspan class="cls-10"><tspan x="3.82" y="14.5">Organizational</tspan></tspan><tspan class="cls-11"><tspan x="10.46" y="29">Assessment</tspan></tspan></text><text class="cls-12" transform="translate(15.35 214.41) scale(0.96 1)"><tspan class="cls-7">Gather Data<tspan class="cls-8" x="70.39" y="0">:</tspan><tspan class="cls-13" x="72.39" y="0"></tspan></tspan><tspan class="cls-10"><tspan x="1.58" y="14.5">E</tspan><tspan class="cls-14" x="7.56" y="14.5">n</tspan><tspan x="13.36" y="14.5">vi</tspan><tspan class="cls-15" x="21.18" y="14.5">r</tspan><tspan x="25.61" y="14.5">onmental</tspan><tspan x="7.69" y="29">Assessment</tspan></tspan></text><text class="cls-16" transform="translate(40.02 86.78) scale(0.92 1)">Ana<tspan class="cls-17" x="21.63" y="0">l</tspan><tspan class="cls-18" x="24.36" y="0">y</tspan><tspan class="cls-19" x="30.1" y="0">z</tspan><tspan x="35.73" y="0">e</tspan><tspan class="cls-20" x="41.97" y="0"> </tspan><tspan class="cls-21" x="43.4" y="0">W</tspan><tspan x="55.99" y="0">ork</tspan><tspan class="cls-17" x="73.99" y="0">f</tspan><tspan x="77.1" y="0">o</tspan><tspan class="cls-22" x="83.85" y="0">r</tspan><tspan x="88.55" y="0">ce</tspan><tspan x="2.39" y="14.5">Supp</tspan><tspan class="cls-23" x="29.14" y="14.5">l</tspan><tspan class="cls-24" x="31.87" y="14.5">y &amp; Demand</tspan></text><text class="cls-25" transform="translate(280.53 288.01) scale(0.96 1)">Monitor <tspan x="-5.78" y="14.5">&amp; Evaluate</tspan></text><text class="cls-25" transform="translate(301.86 139.34) scale(0.96 1)">Close the G<tspan class="cls-26" x="64.76" y="0">a</tspan><tspan x="70.88" y="0">ps</tspan><tspan class="cls-27" x="82.72" y="0">:</tspan><tspan x="84.6" y="0"></tspan></text><text class="cls-28" transform="translate(293.46 153.55) scale(0.94 1)">Implement<tspan class="cls-29" x="50.36" y="0"> </tspan><tspan class="cls-30" x="52.03" y="0">W</tspan><tspan x="63.35" y="0">ork</tspan><tspan class="cls-31" x="80.05" y="0">f</tspan><tspan x="82.77" y="0">o</tspan><tspan class="cls-32" x="89.26" y="0">r</tspan><tspan class="cls-33" x="93.56" y="0">ce</tspan><tspan x="20.12" y="14.22">D</tspan><tspan class="cls-34" x="29" y="14.22">e</tspan><tspan class="cls-35" x="34.42" y="14.22">v</tspan><tspan x="39.29" y="14.22">elopment</tspan><tspan x="21.15" y="28.44">Components</tspan></text><text class="cls-36" transform="translate(144.52 296.19)">Step 1</text><text class="cls-37" transform="translate(32.93 191.66)">Step 2</text><text class="cls-37" transform="translate(70.25 64.72)">Step 3</text><text class="cls-37" transform="translate(203.1 20.99)">Step 4</text><text class="cls-38" transform="translate(189.99 46.97) scale(0.96 1)">Identify G<tspan class="cls-39" x="55.35" y="0">a</tspan><tspan class="cls-9" x="61.58" y="0">ps</tspan></text><text class="cls-37" transform="translate(328.08 120.31)">Step 5</text><text class="cls-37" transform="translate(285.99 267.7)">Step 6</text><polygon class="cls-40" points="306.12 87.35 280.31 83.96 296.14 63.3 306.12 87.35"/><polygon class="cls-40" points="353.71 213.4 335.22 231.72 328.59 206.55 353.71 213.4"/><polygon class="cls-40" points="244.85 334.56 219.7 327.82 238.11 309.42 244.85 334.56"/><polygon class="cls-40" points="85.9 296.36 80.88 270.81 105.51 279.24 85.9 296.36"/><polygon class="cls-40" points="41.6 157.95 58.83 138.44 67.11 163.12 41.6 157.95"/><polygon class="cls-40" points="140.18 36.27 165.69 41.43 148.46 60.94 140.18 36.27"/></svg>