<svg id="Layer_1" data-name="Layer 1" xmlns="http://www.w3.org/2000/svg" viewBox="0 0 400 330.07"><defs><style>.cls-1,.cls-18,.cls-20{fill:#fff;}.cls-1{stroke:#adcde0;}.cls-1,.cls-17,.cls-19,.cls-2,.cls-3{stroke-miterlimit:10;}.cls-1,.cls-17,.cls-2{stroke-width:4px;}.cls-2{fill:#7ec182;stroke:#7ec182;}.cls-19,.cls-3{fill:none;}.cls-17,.cls-19,.cls-3{stroke:#1f295c;}.cls-3{stroke-width:2px;}.cls-4,.cls-8{font-size:11px;}.cls-16,.cls-4,.cls-8{fill:#1f295c;}.cls-4{font-family:GillSansMT-Bold, Gill Sans MT;font-weight:700;letter-spacing:-0.01em;}.cls-5{letter-spacing:-0.02em;}.cls-6{letter-spacing:-0.02em;}.cls-7{letter-spacing:-0.12em;}.cls-16,.cls-20,.cls-8{font-family:GillSansMT, Gill Sans MT;}.cls-8{letter-spacing:-0.02em;}.cls-9{letter-spacing:-0.14em;}.cls-10{letter-spacing:-0.1em;}.cls-11{letter-spacing:-0.01em;}.cls-12{letter-spacing:-0.02em;}.cls-13{letter-spacing:-0.04em;}.cls-14{letter-spacing:-0.03em;}.cls-15{letter-spacing:-0.04em;}.cls-16{font-size:12px;}.cls-17{fill:#73abcb;}.cls-19{stroke-width:3px;}.cls-20{font-size:10.11px;}.cls-21{letter-spacing:0.03em;}.cls-22{letter-spacing:-0.02em;}.cls-23{letter-spacing:-0.01em;}.cls-24{letter-spacing:-0.02em;}.cls-25{letter-spacing:-0.02em;}.cls-26{letter-spacing:-0.12em;}.cls-27{letter-spacing:-0.09em;}.cls-28{letter-spacing:-0.1em;}.cls-29{letter-spacing:-0.02em;}</style></defs><title>Artboard 1</title><path class="cls-1" d="M237.23,4.24a159.5,159.5,0,0,0-89.77,27.49H13.16a9.43,9.43,0,0,0-9.42,9.42V112.2a9.43,9.43,0,0,0,9.42,9.42H82.79A160.27,160.27,0,1,0,237.23,4.24Z"/><path class="cls-2" d="M107.59,103.46c0,4.68-3.26,8.47-7.29,8.47H24c-4,0-7.29-3.79-7.29-8.47V51.28c0-4.68,3.26-8.47,7.29-8.47H100.3c4,0,7.29,3.79,7.29,8.47Z"/><circle class="cls-3" cx="318.14" cy="82.5" r="40.55" transform="translate(121.1 345.54) rotate(-67.7)"/><circle class="cls-3" cx="352.53" cy="163.8" r="40.55" transform="translate(67.22 427.82) rotate(-67.7)"/><circle class="cls-3" cx="319.19" cy="245.11" r="40.55" transform="translate(-28.7 447.42) rotate(-67.7)"/><circle class="cls-3" cx="237.63" cy="278.81" r="40.55" transform="translate(-110.49 392.88) rotate(-67.7)"/><circle class="cls-3" cx="156.38" cy="245.49" r="40.55" transform="translate(-130.08 297.03) rotate(-67.7)"/><circle class="cls-3" cx="123.73" cy="164.95" r="40.55" transform="translate(-75.83 216.85) rotate(-67.7)"/><circle class="cls-3" cx="157.08" cy="83.65" r="40.55" transform="translate(20.09 197.24) rotate(-67.7)"/><path class="cls-3" d="M274.41,64.56a40.55,40.55,0,1,1-26.25-54.34,41,41,0,0,1,4.12,1.44A40.55,40.55,0,0,1,274.41,64.56Z"/><text class="cls-4" transform="translate(25.09 70.6) scale(0.96 1)">Close the G<tspan class="cls-5" x="58.95" y="0">a</tspan><tspan class="cls-6" x="64.51" y="0">ps</tspan><tspan class="cls-7" x="75.29" y="0">:</tspan><tspan class="cls-6" x="77.01" y="0"></tspan></text><text class="cls-8" transform="translate(17.45 82.09) scale(0.94 1)">Implement<tspan class="cls-9" x="45.84" y="0"> </tspan><tspan class="cls-10" x="47.36" y="0">W</tspan><tspan class="cls-11" x="57.66" y="0">ork</tspan><tspan class="cls-12" x="72.86" y="0">f</tspan><tspan class="cls-11" x="75.34" y="0">o</tspan><tspan class="cls-13" x="81.25" y="0">r</tspan><tspan class="cls-11" x="85.16" y="0">ce</tspan><tspan class="cls-11" x="18.31" y="11.49">D</tspan><tspan class="cls-14" x="26.4" y="11.49">e</tspan><tspan class="cls-15" x="31.33" y="11.49">v</tspan><tspan x="35.77" y="11.49">elopment</tspan><tspan x="19.25" y="22.97">Components</tspan></text><text class="cls-16" transform="translate(50.44 55.23)">Step 5</text><circle class="cls-17" cx="238.78" cy="162.75" r="55.95" transform="translate(-11.85 306.6) rotate(-64.13)"/><polygon class="cls-17" points="232.25 107.74 232.25 101.44 227.46 101.44 238.72 93.06 249.63 101.57 244.9 101.57 244.9 107.74 232.25 107.74"/><polygon class="cls-17" points="233.02 218.94 233.02 225.24 228.23 225.24 239.49 233.62 250.4 225.11 245.67 225.11 245.67 218.94 233.02 218.94"/><polygon class="cls-17" points="294.31 168.79 300.6 168.79 300.6 173.58 308.98 162.33 300.47 151.42 300.47 156.14 294.31 156.14 294.31 168.79"/><polygon class="cls-17" points="184.03 168.79 177.74 168.79 177.74 173.58 169.36 162.33 177.87 151.42 177.87 156.14 184.03 156.14 184.03 168.79"/><polygon class="cls-17" points="194.81 128.17 190.36 123.71 186.98 127.1 189.01 113.22 202.74 111.52 199.4 114.86 203.76 119.22 194.81 128.17"/><polygon class="cls-17" points="282.08 128.17 286.54 123.71 289.92 127.1 287.89 113.22 274.16 111.52 277.49 114.86 273.14 119.22 282.08 128.17"/><polygon class="cls-17" points="282.08 197.13 286.54 201.59 289.92 198.2 287.89 212.08 274.16 213.78 277.49 210.44 273.14 206.08 282.08 197.13"/><polygon class="cls-17" points="194.81 197.13 190.36 201.59 186.98 198.2 189.01 212.08 202.74 213.78 199.4 210.44 203.76 206.08 194.81 197.13"/><circle class="cls-18" cx="238.38" cy="162.75" r="55.95" transform="translate(-12.07 306.24) rotate(-64.13)"/><polygon class="cls-18" points="231.85 107.74 231.85 101.44 227.07 101.44 238.32 93.06 249.23 101.57 244.51 101.57 244.51 107.74 231.85 107.74"/><polygon class="cls-18" points="232.62 218.94 232.62 225.24 227.84 225.24 239.09 233.62 250 225.11 245.28 225.11 245.28 218.94 232.62 218.94"/><polygon class="cls-18" points="293.91 168.79 300.21 168.79 300.21 173.58 308.59 162.33 300.08 151.42 300.07 156.14 293.91 156.14 293.91 168.79"/><polygon class="cls-18" points="183.64 168.79 177.34 168.79 177.34 173.58 168.96 162.33 177.47 151.42 177.48 156.14 183.64 156.14 183.64 168.79"/><polygon class="cls-18" points="194.42 128.17 189.97 123.71 186.58 127.1 188.61 113.22 202.34 111.52 199.01 114.86 203.37 119.22 194.42 128.17"/><polygon class="cls-18" points="281.69 128.17 286.14 123.71 289.53 127.1 287.49 113.22 273.76 111.52 277.1 114.86 272.74 119.22 281.69 128.17"/><polygon class="cls-18" points="281.69 197.13 286.14 201.59 289.53 198.2 287.49 212.08 273.76 213.78 277.1 210.44 272.74 206.08 281.69 197.13"/><polygon class="cls-18" points="194.42 197.13 189.97 201.59 186.58 198.2 188.61 212.08 202.34 213.78 199.01 210.44 203.37 206.08 194.42 197.13"/><circle class="cls-19" cx="239.31" cy="162.75" r="37.33" transform="translate(-11.54 307.08) rotate(-64.13)"/><text class="cls-20" transform="translate(132.55 72.86) scale(1.05 1)">Supe<tspan class="cls-21" x="19.59" y="0">r</tspan><tspan x="23.89" y="0">vision</tspan><tspan x="-7.03" y="10.34">&amp; </tspan><tspan class="cls-22" x="2.1" y="10.34">P</tspan><tspan x="7.01" y="10.34">er</tspan><tspan class="cls-23" x="15.85" y="10.34">f</tspan><tspan x="18.28" y="10.34">ormance</tspan><tspan x="-2.26" y="20.67">Management</tspan></text><text class="cls-20" transform="translate(97.3 163.34) scale(1.05 1)">Com<tspan class="cls-23" x="20.54" y="0">m</tspan><tspan x="28.23" y="0">unity</tspan><tspan x="6.96" y="10.34">Context</tspan></text><text class="cls-20" transform="translate(125.43 243.77) scale(1.05 1)">Organizational<tspan x="3.73" y="10.34">E</tspan><tspan class="cls-24" x="8.79" y="10.34">n</tspan><tspan x="13.69" y="10.34">vi</tspan><tspan class="cls-22" x="20.34" y="10.34">r</tspan><tspan x="24.09" y="10.34">onment</tspan></text><text class="cls-20" transform="translate(298.24 239.55) scale(1.05 1)">Incenti<tspan class="cls-25" x="27.5" y="0">v</tspan><tspan x="31.72" y="0">es</tspan><tspan x="4.27" y="10.34">&amp;</tspan><tspan class="cls-26" x="10.59" y="10.34"> </tspan><tspan class="cls-27" x="12.13" y="10.34">W</tspan><tspan x="21.76" y="10.34">ork</tspan><tspan x="-2.41" y="20.67">Conditions</tspan></text><text class="cls-20" transform="translate(297.02 73.4) scale(1.05 1)">Education<tspan x="-8.91" y="10.34">&amp; P</tspan><tspan class="cls-22" x="5.37" y="10.34">r</tspan><tspan x="9.12" y="10.34">o</tspan><tspan class="cls-23" x="14.7" y="10.34">f</tspan><tspan x="17.13" y="10.34">essional</tspan><tspan x="-3.74" y="20.67">P</tspan><tspan class="cls-25" x="1.41" y="20.67">r</tspan><tspan x="5.22" y="20.67">eparation</tspan></text><text class="cls-20" transform="translate(325.08 157.88) scale(1.05 1)">Recruitment<tspan class="cls-28" x="51.09" y="0">,</tspan><tspan x="1.98" y="10.34">Sc</tspan><tspan class="cls-29" x="11.05" y="10.34">r</tspan><tspan x="14.85" y="10.34">eening &amp;</tspan><tspan x="7.55" y="20.67">Selection</tspan></text></svg>