<svg id="Layer_1" data-name="Layer 1" xmlns="http://www.w3.org/2000/svg" viewBox="0 0 400 330.07"><defs><style>.cls-1,.cls-10,.cls-2,.cls-4,.cls-6{fill:#fff;}.cls-1{stroke:#adcde0;stroke-width:4px;}.cls-1,.cls-2,.cls-5{stroke-miterlimit:10;}.cls-2{stroke:#7ec182;stroke-width:3px;}.cls-19,.cls-22,.cls-29,.cls-3,.cls-5{fill:#1f295c;}.cls-4{font-size:13.56px;}.cls-19,.cls-4{font-family:GillSansMT-Bold, Gill Sans MT;font-weight:700;}.cls-5{stroke:#fff;}.cls-6{font-size:11.59px;}.cls-10,.cls-22,.cls-29,.cls-6{font-family:GillSansMT, Gill Sans MT;}.cls-7{letter-spacing:-0.1em;}.cls-8{letter-spacing:-0.1em;}.cls-9{letter-spacing:-0.06em;}.cls-10{font-size:10.11px;}.cls-11{letter-spacing:-0.02em;}.cls-12{letter-spacing:-0.1em;}.cls-13{letter-spacing:-0.01em;}.cls-14{letter-spacing:-0.02em;}.cls-15{letter-spacing:-0.02em;}.cls-16{letter-spacing:-0.02em;}.cls-17{letter-spacing:-0.02em;}.cls-18{letter-spacing:-0.12em;}.cls-19,.cls-22{font-size:9.76px;}.cls-19{letter-spacing:-0.02em;}.cls-20{letter-spacing:-0.02em;}.cls-21{letter-spacing:-0.12em;}.cls-22{letter-spacing:-0.02em;}.cls-23{letter-spacing:-0.14em;}.cls-24{letter-spacing:-0.1em;}.cls-25{letter-spacing:-0.02em;}.cls-26{letter-spacing:-0.04em;}.cls-27{letter-spacing:-0.03em;}.cls-28{letter-spacing:-0.04em;}.cls-29{font-size:10.67px;}.cls-30{letter-spacing:0.03em;}.cls-31{letter-spacing:-0.02em;}.cls-32{letter-spacing:-0.09em;}</style></defs><title>Artboard 1</title><path class="cls-1" d="M237.23,4.24a159.5,159.5,0,0,0-89.77,27.49H13.16a9.43,9.43,0,0,0-9.42,9.42V112.2a9.43,9.43,0,0,0,9.42,9.42H82.79A160.27,160.27,0,1,0,237.23,4.24Z"/><path class="cls-2" d="M107.59,103.46c0,4.68-3.26,8.47-7.29,8.47H24c-4,0-7.29-3.79-7.29-8.47V51.28c0-4.68,3.26-8.47,7.29-8.47H100.3c4,0,7.29,3.79,7.29,8.47Z"/><circle class="cls-3" cx="318.14" cy="82.5" r="40.55" transform="translate(121.1 345.54) rotate(-67.7)"/><circle class="cls-3" cx="237.11" cy="164.05" r="54.33" transform="translate(-13.95 305.83) rotate(-64.13)"/><text class="cls-4" transform="matrix(0.8, -0.6, 0.6, 0.8, 205.98, 135.22)">L</text><text class="cls-4" transform="translate(212.3 130.52) rotate(-27.6)">e</text><text class="cls-4" transform="translate(218.53 127.24) rotate(-19.29)">a</text><text class="cls-4" transform="translate(224.89 124.95) rotate(-10.82)">d</text><text class="cls-4" transform="translate(232.19 123.54) rotate(-2.06)">e</text><text class="cls-4" transform="translate(239.24 123.3) rotate(5.68)">r</text><text class="cls-4" transform="translate(244.93 123.86) rotate(12.44)">s</text><text class="cls-4" transform="translate(250.2 124.92) rotate(20.2)">h</text><text class="cls-4" transform="translate(257.22 127.6) rotate(26.69)">i</text><text class="cls-4" transform="translate(260.22 128.96) rotate(33.19)">p</text><circle class="cls-3" cx="352.53" cy="163.8" r="40.55" transform="translate(67.22 427.82) rotate(-67.7)"/><circle class="cls-3" cx="319.19" cy="245.11" r="40.55" transform="translate(-28.7 447.42) rotate(-67.7)"/><circle class="cls-3" cx="237.63" cy="278.81" r="40.55" transform="translate(-110.49 392.88) rotate(-67.7)"/><circle class="cls-3" cx="156.38" cy="245.49" r="40.55" transform="translate(-130.08 297.03) rotate(-67.7)"/><circle class="cls-3" cx="123.73" cy="164.95" r="40.55" transform="translate(-75.83 216.85) rotate(-67.7)"/><circle class="cls-3" cx="157.08" cy="83.65" r="40.55" transform="translate(20.09 197.24) rotate(-67.7)"/><path class="cls-3" d="M274.41,64.56a40.55,40.55,0,1,1-26.25-54.34,41,41,0,0,1,4.12,1.44A40.55,40.55,0,0,1,274.41,64.56Z"/><polygon class="cls-3" points="230.78 110.63 230.78 104.51 226.13 104.51 237.06 96.38 247.65 104.64 243.06 104.64 243.06 110.63 230.78 110.63"/><polygon class="cls-3" points="231.52 218.61 231.52 224.73 226.87 224.73 237.8 232.86 248.4 224.6 243.81 224.59 243.81 218.61 231.52 218.61"/><polygon class="cls-3" points="291.03 169.91 297.15 169.91 297.15 174.56 305.28 163.63 297.02 153.04 297.02 157.63 291.03 157.63 291.03 169.91"/><polygon class="cls-3" points="183.96 169.91 177.84 169.91 177.84 174.56 169.71 163.63 177.97 153.04 177.98 157.63 183.96 157.63 183.96 169.91"/><polygon class="cls-3" points="194.43 130.47 190.1 126.14 186.81 129.43 188.79 115.95 202.12 114.3 198.88 117.55 203.11 121.78 194.43 130.47"/><polygon class="cls-3" points="279.17 130.47 283.49 126.14 286.78 129.43 284.8 115.95 271.47 114.3 274.71 117.55 270.48 121.78 279.17 130.47"/><polygon class="cls-3" points="279.17 197.43 283.49 201.75 286.78 198.47 284.8 211.95 271.47 213.6 274.71 210.35 270.48 206.12 279.17 197.43"/><polygon class="cls-3" points="194.43 197.43 190.1 201.75 186.81 198.47 188.79 211.95 202.12 213.6 198.88 210.35 203.11 206.12 194.43 197.43"/><circle class="cls-5" cx="236.87" cy="164.78" r="37.33" transform="translate(-14.74 306.02) rotate(-64.13)"/><text class="cls-6" transform="translate(219.23 150.91) scale(1.06 1)">Vision<tspan class="cls-7" x="28.72" y="0">,</tspan><tspan x="-3.25" y="12.47">Mission</tspan><tspan class="cls-8" x="31.97" y="12.47">,</tspan><tspan class="cls-9" x="0.26" y="24.94">V</tspan><tspan x="6.56" y="24.94">alues</tspan></text><text class="cls-10" transform="translate(214.08 37.73) scale(1.05 1)"><tspan class="cls-11">J</tspan><tspan x="2.33" y="0">ob</tspan><tspan class="cls-12" x="12.96" y="0"> </tspan><tspan x="14.76" y="0">Ana</tspan><tspan class="cls-13" x="30.87" y="0">l</tspan><tspan x="32.99" y="0">ysis</tspan><tspan x="2.74" y="10.34">&amp; </tspan><tspan class="cls-14" x="11.87" y="10.34">P</tspan><tspan x="16.77" y="10.34">osition</tspan><tspan x="-4.73" y="20.67">Requi</tspan><tspan class="cls-15" x="18.55" y="20.67">r</tspan><tspan x="22.35" y="20.67">ements</tspan></text><text class="cls-10" transform="translate(211.84 272.34) scale(1.05 1)">P<tspan class="cls-16" x="5.15" y="0">r</tspan><tspan x="8.91" y="0">o</tspan><tspan class="cls-13" x="14.49" y="0">f</tspan><tspan x="16.92" y="0">essional</tspan><tspan x="-3.17" y="10.34">D</tspan><tspan class="cls-17" x="4.42" y="10.34">e</tspan><tspan class="cls-11" x="9.11" y="10.34">v</tspan><tspan x="13.33" y="10.34">elopment</tspan><tspan x="4.52" y="20.67">&amp;</tspan><tspan class="cls-18" x="10.84" y="20.67" xml:space="preserve"> T</tspan><tspan x="17.23" y="20.67">raining</tspan></text><text class="cls-19" transform="translate(29.26 70.6) scale(0.96 1)">Close the G<tspan class="cls-20" x="52.33" y="0">a</tspan><tspan x="57.27" y="0">ps</tspan><tspan class="cls-21" x="66.83" y="0">:</tspan><tspan x="68.36" y="0"></tspan></text><text class="cls-22" transform="translate(22.47 82.09) scale(0.94 1)">Implement<tspan class="cls-23" x="40.69" y="0"> </tspan><tspan class="cls-24" x="42.04" y="0">W</tspan><tspan x="51.19" y="0">ork</tspan><tspan class="cls-25" x="64.68" y="0">f</tspan><tspan x="66.88" y="0">o</tspan><tspan class="cls-26" x="72.12" y="0">r</tspan><tspan x="75.6" y="0">ce</tspan><tspan x="16.25" y="11.49">D</tspan><tspan class="cls-27" x="23.43" y="11.49">e</tspan><tspan class="cls-28" x="27.81" y="11.49">v</tspan><tspan x="31.75" y="11.49">elopment</tspan><tspan x="17.09" y="22.97">Components</tspan></text><text class="cls-29" transform="translate(50.44 55.23)">Step 5</text><text class="cls-10" transform="translate(132.55 72.86) scale(1.05 1)">Supe<tspan class="cls-30" x="19.59" y="0">r</tspan><tspan x="23.89" y="0">vision</tspan><tspan x="-7.03" y="10.34">&amp; </tspan><tspan class="cls-14" x="2.1" y="10.34">P</tspan><tspan x="7.01" y="10.34">er</tspan><tspan class="cls-13" x="15.85" y="10.34">f</tspan><tspan x="18.28" y="10.34">ormance</tspan><tspan x="-2.26" y="20.67">Management</tspan></text><text class="cls-10" transform="translate(97.3 163.34) scale(1.05 1)">Com<tspan class="cls-13" x="20.54" y="0">m</tspan><tspan x="28.23" y="0">unity</tspan><tspan x="6.96" y="10.34">Context</tspan></text><text class="cls-10" transform="translate(125.43 243.77) scale(1.05 1)">Organizational<tspan x="3.73" y="10.34">E</tspan><tspan class="cls-31" x="8.79" y="10.34">n</tspan><tspan x="13.69" y="10.34">vi</tspan><tspan class="cls-14" x="20.34" y="10.34">r</tspan><tspan x="24.09" y="10.34">onment</tspan></text><text class="cls-10" transform="translate(298.24 239.55) scale(1.05 1)">Incenti<tspan class="cls-11" x="27.5" y="0">v</tspan><tspan x="31.72" y="0">es</tspan><tspan x="4.27" y="10.34">&amp;</tspan><tspan class="cls-18" x="10.59" y="10.34"> </tspan><tspan class="cls-32" x="12.13" y="10.34">W</tspan><tspan x="21.76" y="10.34">ork</tspan><tspan x="-2.41" y="20.67">Conditions</tspan></text><text class="cls-10" transform="translate(297.02 73.4) scale(1.05 1)">Education<tspan x="-8.91" y="10.34">&amp; P</tspan><tspan class="cls-14" x="5.37" y="10.34">r</tspan><tspan x="9.12" y="10.34">o</tspan><tspan class="cls-13" x="14.7" y="10.34">f</tspan><tspan x="17.13" y="10.34">essional</tspan><tspan x="-3.74" y="20.67">P</tspan><tspan class="cls-11" x="1.41" y="20.67">r</tspan><tspan x="5.22" y="20.67">eparation</tspan></text><text class="cls-10" transform="translate(325.08 157.88) scale(1.05 1)">Recruitment<tspan class="cls-12" x="51.09" y="0">,</tspan><tspan x="1.98" y="10.34">Sc</tspan><tspan class="cls-15" x="11.05" y="10.34">r</tspan><tspan x="14.85" y="10.34">eening &amp;</tspan><tspan x="7.55" y="20.67">Selection</tspan></text></svg>